<?xml version="1.0" encoding="UTF-8"?>
<svg version="1.1" xmlns="http://www.w3.org/2000/svg" width="512" height="512">
<path d="M0 0 C1.89125582 -0.00067569 3.78251156 -0.0016479 5.67376709 -0.00289917 C9.62057326 -0.00436514 13.56735665 -0.0022582 17.51416016 0.00244141 C22.52413384 0.00812222 27.53405373 0.00486306 32.54402542 -0.00113106 C36.44613027 -0.00478005 40.3482228 -0.00357811 44.25032806 -0.00100327 C46.09514116 -0.00034511 47.93995545 -0.0011226 49.78476715 -0.00348282 C93.5636794 -0.04719946 119.75553585 13.48457358 150.484375 44.1328125 C158.90246915 52.54120373 158.90246915 52.54120373 161.296875 56.1328125 C163.80519519 57.02355089 163.80519519 57.02355089 166.82421875 57.5703125 C168.57569214 57.94446289 168.57569214 57.94446289 170.36254883 58.32617188 C172.27910278 58.72545898 172.27910278 58.72545898 174.234375 59.1328125 C241.00275612 73.70382131 241.00275612 73.70382131 250.296875 88.1328125 C259.4681691 103.65048733 263.74270828 121.89207207 260.671875 139.8828125 C258.69577498 147.41924913 253.49566911 152.85745876 247.01953125 156.9453125 C241.71960365 159.25690216 236.01225783 159.66127309 230.296875 160.1328125 C230.13251953 161.00292969 230.13251953 161.00292969 229.96484375 161.890625 C229.80628906 162.67179688 229.64773438 163.45296875 229.484375 164.2578125 C229.33355469 165.02351562 229.18273437 165.78921875 229.02734375 166.578125 C228.14827671 169.65250919 226.789005 172.3120736 225.296875 175.1328125 C226.20228027 175.14683105 226.20228027 175.14683105 227.12597656 175.16113281 C253.55086388 175.67492208 253.55086388 175.67492208 262.796875 182.3828125 C266.91420917 186.91188008 269.4677333 191.29800572 269.796875 197.5078125 C269.20405253 207.98100941 263.6678078 215.12146976 256.296875 222.1328125 C248.59851087 228.3477872 240.41370242 233.83211441 232.109375 239.1953125 C230.97712274 239.93064315 229.84504674 240.66624527 228.71313477 241.40209961 C214.97283702 250.32342562 201.16537004 259.1417842 187.33203125 267.91796875 C166.57574719 281.10933549 145.83563327 294.4654161 125.859375 308.8203125 C98.03706573 328.7375976 70.69952751 340.58177762 36.18359375 340.29296875 C34.42240776 340.2855201 32.66121739 340.27905262 30.90002441 340.27349854 C27.18204011 340.26069283 23.4641303 340.2426165 19.7461853 340.22134399 C13.94635892 340.19114527 8.14680573 340.19366096 2.34692383 340.2019043 C-13.65899853 340.21854158 -29.64271125 340.23265928 -45.640625 339.6796875 C-70.43030061 338.97379182 -86.58811955 342.77860286 -106.58837891 357.81054688 C-110.70114949 360.87691102 -114.9780092 363.60842408 -119.328125 366.3203125 C-119.91972412 366.72306396 -120.51132324 367.12581543 -121.12084961 367.54077148 C-124.77024905 369.9548374 -127.3472063 370.63349281 -131.703125 370.1328125 C-133.578125 368.9453125 -133.578125 368.9453125 -134.703125 367.1328125 C-134.9621582 364.68994141 -134.9621582 364.68994141 -134.703125 362.1328125 C-129.26783837 355.46077395 -118.40034631 351.07892167 -111.015625 346.7578125 C-108.92792444 345.53126718 -106.84105375 344.3033472 -104.75534058 343.07342529 C-103.38128143 342.26517433 -102.00491338 341.46083561 -100.62625122 340.66046143 C-97.43359223 338.79753013 -94.31147853 336.89919187 -91.27880859 334.78417969 C-90.2161377 334.06133789 -89.1534668 333.33849609 -88.05859375 332.59375 C-87.16164795 331.94970215 -86.26470215 331.3056543 -85.34057617 330.64208984 C-73.46969768 325.71653975 -57.42290109 328.05618894 -44.79589462 328.14934349 C-40.93311465 328.17630258 -37.07039465 328.19397203 -33.20755005 328.20881653 C-31.87363237 328.21395826 -30.53971476 328.21911489 -29.2057972 328.22428608 C-28.2048236 328.22816442 -28.2048236 328.22816442 -27.18362832 328.23212111 C-18.21737121 328.26786499 -9.25124093 328.31331607 -0.28515625 328.37963867 C6.45483073 328.42939066 13.19466138 328.4572667 19.93481064 328.47338295 C22.48053765 328.48318352 25.02624886 328.50024211 27.57187271 328.52516747 C64.33156815 328.87709565 91.83232614 318.27736357 121.37158203 296.70288086 C132.73976955 288.40928824 144.4527649 280.72718972 156.296875 273.1328125 C157.3070166 272.4840918 158.3171582 271.83537109 159.35791016 271.16699219 C168.61342579 265.22528825 177.87801567 259.29789163 187.16796875 253.41015625 C199.1590135 245.7960708 211.0495756 238.03958585 222.8789978 230.17724609 C224.47270264 229.11806168 226.06710822 228.05993076 227.66226196 227.00292969 C245.68096553 216.17565906 245.68096553 216.17565906 257.296875 199.4453125 C257.296875 196.17747469 256.30825349 194.68055859 254.296875 192.1328125 C246.15198005 186.13131096 233.76734229 187.21282898 224.12011719 188.40087891 C196.72764011 192.94486795 171.74629806 208.7628849 148.25390625 222.63671875 C142.54065033 226.00593181 136.77075678 229.26629517 130.984375 232.5078125 C122.20796524 237.43684019 113.51656256 242.49832696 104.859375 247.6328125 C103.72781982 248.3036084 102.59626465 248.9744043 101.43041992 249.66552734 C99.32106823 250.92028385 97.21451518 252.1797619 95.11132812 253.44482422 C93.3477603 254.50253656 91.57665115 255.54788296 89.79492188 256.57470703 C89.07498047 256.99864746 88.35503906 257.42258789 87.61328125 257.859375 C86.69784546 258.386521 86.69784546 258.386521 85.76391602 258.92431641 C83.42027274 260.85492619 82.90090008 263.2603196 82.03515625 266.0859375 C79.32484219 273.60024738 72.95286487 276.70871554 66.1015625 279.96875 C47.7162293 287.59943147 18.87983466 281.74633247 -0.453125 280.7578125 C-1.70046417 280.69468872 -2.94780334 280.63156494 -4.23294067 280.56652832 C-12.72577063 280.13177341 -21.21482735 279.64813442 -29.703125 279.1328125 C-30.93796631 279.06058472 -32.17280762 278.98835693 -33.44506836 278.91394043 C-37.05830869 278.69758086 -40.66968864 278.46137518 -44.28125 278.21875 C-45.37499939 278.15483063 -46.46874878 278.09091125 -47.59564209 278.02505493 C-49.10919281 277.91669815 -49.10919281 277.91669815 -50.65332031 277.80615234 C-51.53546204 277.74841644 -52.41760376 277.69068054 -53.32647705 277.63119507 C-56.15734971 277.03756167 -57.62306422 276.12773649 -59.703125 274.1328125 C-60.203125 271.1328125 -60.203125 271.1328125 -59.703125 268.1328125 C-57.41210984 265.77491976 -56.12766595 265.16463765 -52.8265686 264.91717529 C-51.71155975 264.99188049 -50.5965509 265.06658569 -49.44775391 265.14355469 C-47.54263535 265.25917755 -47.54263535 265.25917755 -45.59902954 265.37713623 C-44.20923019 265.47772901 -42.81945 265.57858679 -41.4296875 265.6796875 C-39.98604561 265.77272865 -38.54230669 265.86427516 -37.09848022 265.95440674 C-33.28200778 266.19640948 -29.46707052 266.45740891 -25.65216064 266.72277832 C-21.85471156 266.98427244 -18.05627766 267.23034272 -14.2578125 267.4765625 C-12.76790186 267.57331139 -11.277993 267.67008757 -9.78808594 267.76689148 C-8.69164764 267.83808984 -8.69164764 267.83808984 -7.57305908 267.91072655 C-5.37217469 268.05436202 -3.17142842 268.19997246 -0.97070312 268.34602356 C10.44576305 269.10040691 21.86292091 269.71458882 33.296875 270.1328125 C35.11614502 270.20121338 35.11614502 270.20121338 36.97216797 270.27099609 C39.83115779 270.3617647 42.68672583 270.41343862 45.546875 270.4453125 C46.91779297 270.48881836 46.91779297 270.48881836 48.31640625 270.53320312 C55.42918463 270.5989685 62.23012617 269.27159412 67.98950195 264.82641602 C71.01411317 261.6390116 72.15374145 258.40967272 72.4296875 254.140625 C72.03457154 248.1674014 68.28369548 242.45668302 64.296875 238.1328125 C51.50885602 227.02230932 34.69702894 223.33751155 18.734375 219.1953125 C-0.83786664 214.08605201 -20.04790636 208.52126445 -38.578125 200.3203125 C-55.00019495 193.12226405 -69.39595651 189.6117355 -86.83935547 195.90332031 C-108.21818147 204.51335605 -126.24419751 219.94107839 -143.88989258 234.39550781 C-148.15694423 237.89023526 -152.47210588 241.31239454 -156.828125 244.6953125 C-162.93147743 249.44517628 -168.80611349 254.4336102 -174.64453125 259.50390625 C-175.66402904 260.38024726 -176.6835583 261.25655166 -177.703125 262.1328125 C-178.58484375 262.89980469 -179.4665625 263.66679687 -180.375 264.45703125 C-183.58707953 266.76908179 -185.84284436 266.5698254 -189.703125 266.1328125 C-191.703125 264.1328125 -191.703125 264.1328125 -192.140625 261.3203125 C-191.30526535 255.23412076 -185.04828443 251.61613567 -180.515625 247.8203125 C-179.94175049 247.33739746 -179.36787598 246.85448242 -178.77661133 246.35693359 C-174.72189274 242.95663902 -170.61727574 239.62520849 -166.46875 236.33984375 C-164.34180559 234.64249405 -162.22945363 232.93191196 -160.125 231.20703125 C-114.14806708 193.53579395 -114.14806708 193.53579395 -89.85546875 184.39453125 C-86.61609438 183.22342645 -86.61609438 183.22342645 -83.703125 181.1328125 C-84.16203125 180.68292969 -84.6209375 180.23304688 -85.09375 179.76953125 C-90.13525362 174.48442556 -94.703125 167.75187384 -94.703125 160.1328125 C-95.88068359 160.00326172 -95.88068359 160.00326172 -97.08203125 159.87109375 C-103.66718901 158.9903794 -109.0967393 158.19491015 -113.703125 153.1328125 C-121.67513811 142.15530782 -121.74551709 129.65709108 -119.88085938 116.68359375 C-114.36441346 81.93293447 -96.56261022 48.85819396 -71.703125 24.1328125 C-70.79820312 23.22789063 -69.89328125 22.32296875 -68.9609375 21.390625 C-48.274797 1.66384174 -27.18259929 -0.03459985 0 0 Z M-67.93383789 36.23852539 C-70.86339603 39.37505659 -73.48636633 42.71513932 -76.078125 46.1328125 C-76.63467773 46.86395264 -77.19123047 47.59509277 -77.76464844 48.34838867 C-81.42093096 53.23027309 -84.80847765 58.2194 -87.953125 63.4453125 C-88.32356934 64.06083984 -88.69401367 64.67636719 -89.07568359 65.31054688 C-90.75400522 68.19226938 -92.14748193 70.82346773 -92.703125 74.1328125 C-92.14882812 74.37515625 -91.59453125 74.6175 -91.0234375 74.8671875 C-90.29898438 75.20234375 -89.57453125 75.5375 -88.828125 75.8828125 C-88.10882813 76.20765625 -87.38953125 76.5325 -86.6484375 76.8671875 C-84.28597245 78.40421295 -83.76882019 79.54928272 -82.703125 82.1328125 C-82.27746639 85.10276499 -82.3329404 88.07272656 -82.328125 91.0703125 C-82.30363281 91.86888672 -82.27914062 92.66746094 -82.25390625 93.49023438 C-82.23460983 97.37203043 -82.42286465 99.63272709 -84.3515625 103.07421875 C-89.01916814 107.16031206 -94.06467422 107.41742849 -100.078125 107.7578125 C-101.94597656 107.86996094 -101.94597656 107.86996094 -103.8515625 107.984375 C-104.79257813 108.03335938 -105.73359375 108.08234375 -106.703125 108.1328125 C-110.63667859 125.79705313 -110.63667859 125.79705313 -106.703125 143.1328125 C-104.8235836 145.60560149 -103.47834684 146.50032907 -100.703125 148.1328125 C-97.57010836 148.28940748 -97.57010836 148.28940748 -94.703125 148.1328125 C-94.41179687 147.359375 -94.12046875 146.5859375 -93.8203125 145.7890625 C-89.18572434 134.0131278 -84.0935916 126.79287552 -72.6171875 121.09765625 C-63.26658917 117.36089298 -52.41856755 117.94013675 -43.234375 121.81640625 C-33.40073594 126.93050558 -27.94260441 133.99595088 -24.12255859 144.30297852 C-23.72235001 145.37987694 -23.72235001 145.37987694 -23.3140564 146.47853088 C-23.11244904 147.02444382 -22.91084167 147.57035675 -22.703125 148.1328125 C-0.91794647 148.96213372 20.82937174 149.27435337 42.62891579 149.23420644 C46.71936483 149.22780062 50.80981527 149.2273559 54.90026855 149.22618103 C62.58801645 149.22311704 70.2757495 149.21497285 77.96349096 149.20483154 C86.74036386 149.19351377 95.5172376 149.18812118 104.29411602 149.18313611 C122.29504398 149.1727839 140.29595828 149.15528396 158.296875 149.1328125 C158.62083252 148.25165771 158.94479004 147.37050293 159.27856445 146.46264648 C159.93151489 144.71963257 159.93151489 144.71963257 160.59765625 142.94140625 C161.02473877 141.79212646 161.45182129 140.64284668 161.8918457 139.45874023 C166.2148054 129.22560731 173.55177672 123.98650793 183.546875 119.7578125 C195.62004872 117.74561688 206.41222946 118.82769857 216.609375 125.8828125 C224.06545029 131.99709919 227.45517011 139.03935685 230.296875 148.1328125 C236.23185986 148.62739457 240.37379598 147.56826547 245.296875 144.1328125 C250.19917558 138.72771186 250.48387285 133.17196606 250.16015625 126.1796875 C249.88418387 120.9895235 249.88418387 120.9895235 248.296875 116.1328125 C246.07609754 115.4626872 246.07609754 115.4626872 243.37890625 115.01953125 C242.37150391 114.82294922 241.36410156 114.62636719 240.32617188 114.42382812 C238.20261736 114.0254199 236.0776168 113.63463431 233.95117188 113.25195312 C227.67466194 112.01101569 223.73754021 110.82469671 219.296875 106.1328125 C216.10402459 100.61788906 217.07333979 94.88872288 218.3125 88.89453125 C218.49586914 88.00080811 218.67923828 87.10708496 218.86816406 86.1862793 C219.00963867 85.50863525 219.15111328 84.83099121 219.296875 84.1328125 C207.26024221 79.88146317 195.13387197 76.15179065 182.796875 72.8828125 C181.55856934 72.55410156 180.32026367 72.22539062 179.04443359 71.88671875 C172.06412267 70.05838661 165.08386565 68.39348742 158.00927734 66.96850586 C153.50278284 65.58005125 151.13779427 62.74721361 148.296875 59.1328125 C147.1562946 57.81574506 146.01032533 56.50332764 144.859375 55.1953125 C144.27800781 54.525 143.69664062 53.8546875 143.09765625 53.1640625 C136.78281187 46.04102762 129.74355657 40.03913965 122.296875 34.1328125 C120.81380859 32.90691406 120.81380859 32.90691406 119.30078125 31.65625 C113.39737076 26.84761655 107.32602207 22.79378182 100.609375 19.1953125 C99.93310059 18.82986328 99.25682617 18.46441406 98.56005859 18.08789062 C89.55970801 13.44338852 80.94453381 11.67012708 70.86328125 11.453125 C69.75296036 11.42010284 68.64263947 11.38708069 67.49867249 11.35305786 C52.84174531 10.96586655 38.1775962 10.9838094 23.51672363 11.00585938 C20.45573343 11.00847882 17.39477153 11.00358045 14.33378506 10.99901485 C-18.8281813 10.95662037 -43.21306431 11.19535074 -67.93383789 36.23852539 Z M-98.703125 85.1328125 C-99.37432049 86.589067 -100.03994307 88.04789117 -100.703125 89.5078125 C-101.074375 90.31992188 -101.445625 91.13203125 -101.828125 91.96875 C-102.82807513 94.05279683 -102.82807513 94.05279683 -102.703125 96.1328125 C-99.403125 96.1328125 -96.103125 96.1328125 -92.703125 96.1328125 C-92.6721875 93.68875 -92.6721875 93.68875 -92.640625 91.1953125 C-92.62902344 90.27878906 -92.61742188 89.36226563 -92.60546875 88.41796875 C-92.44363451 86.16687923 -92.44363451 86.16687923 -93.703125 85.1328125 C-95.36929615 85.09217418 -97.03700595 85.0900915 -98.703125 85.1328125 Z M230.296875 88.1328125 C229.306875 91.4328125 228.316875 94.7328125 227.296875 98.1328125 C230.63321426 102.27796128 233.35191265 102.80559446 238.546875 103.3828125 C239.81015625 103.53234375 241.0734375 103.681875 242.375 103.8359375 C243.33921875 103.93390625 244.3034375 104.031875 245.296875 104.1328125 C243.18694136 98.58035555 240.88713683 93.11827954 235.41796875 90.09375 C233.74015361 89.36839153 232.02056449 88.7411735 230.296875 88.1328125 Z M-78.703125 138.1328125 C-83.05637647 144.04606691 -84.53567016 149.87813673 -84.1796875 157.17578125 C-82.88782981 165.19165235 -78.88227492 170.62771902 -72.765625 175.7578125 C-66.24462945 180.10514287 -59.29998305 179.94314402 -51.703125 179.1328125 C-44.52186236 176.80824193 -39.27167446 171.80290243 -35.671875 165.2578125 C-33.06551119 159.27282893 -32.57656393 152.94858385 -34.4296875 146.671875 C-37.66573035 138.75277828 -43.20383006 134.00918762 -50.703125 130.1328125 C-61.11247767 126.89883886 -71.21143436 130.57722684 -78.703125 138.1328125 Z M174.296875 139.1328125 C169.61363844 146.33289047 168.04381674 152.7985455 169.72265625 161.28515625 C172.01210387 168.37823016 176.85140522 174.21400412 183.484375 177.6328125 C190.48176057 180.30302437 198.11198943 180.30302437 205.109375 177.6328125 C211.15007485 174.53023889 214.81855215 169.61257987 218.234375 163.8828125 C220.27929311 156.66545447 220.41875784 149.76479396 217.359375 142.8203125 C213.84628383 136.62250109 208.68042428 132.78859194 202.359375 129.6953125 C191.27171673 127.65880384 181.65131616 130.04791459 174.296875 139.1328125 Z M-22.703125 160.1328125 C-24.353125 164.0928125 -26.003125 168.0528125 -27.703125 172.1328125 C-30.38929328 177.0420166 -33.79826294 180.13690236 -38.09375 183.6171875 C-38.62484375 184.11734375 -39.1559375 184.6175 -39.703125 185.1328125 C-39.703125 185.7928125 -39.703125 186.4528125 -39.703125 187.1328125 C-22.74165706 194.73963222 -5.83706985 201.02020254 12.140625 205.765625 C13.02901062 206.00066742 13.91739624 206.23570984 14.83270264 206.47787476 C19.3134962 207.65993474 23.79774626 208.82482052 28.29003906 209.96240234 C36.60862393 212.10012932 44.69506369 214.45478056 52.65234375 217.7109375 C53.33016907 217.98780396 54.00799438 218.26467041 54.70635986 218.54992676 C66.45580781 223.56921592 76.39704353 232.024819 81.5078125 243.9609375 C81.76820313 244.67765625 82.02859375 245.394375 82.296875 246.1328125 C88.1513979 244.55438721 92.91164383 241.56152062 98.046875 238.4453125 C100.02790986 237.25918659 102.00971236 236.07434207 103.9921875 234.890625 C105.02633789 234.27219727 106.06048828 233.65376953 107.12597656 233.01660156 C115.64795945 227.9538036 124.26089059 223.04494989 132.85693359 218.109375 C135.1968858 216.76485739 137.53593415 215.41890103 139.87353516 214.0703125 C154.20129559 205.80491873 168.57193089 197.67662623 183.296875 190.1328125 C181.93505836 187.40917921 180.43428513 187.16795022 177.671875 185.9453125 C168.63015554 181.50829182 164.09917967 175.34663693 160.296875 166.1328125 C159.306875 163.1628125 159.306875 163.1628125 158.296875 160.1328125 C98.566875 160.1328125 38.836875 160.1328125 -22.703125 160.1328125 Z " fill="#000000" transform="translate(217.703125,70.8671875)"/>
<path d="M0 0 C0.74967041 0.01015137 1.49934082 0.02030273 2.27172852 0.03076172 C31.28972826 0.81265665 58.78988559 12.95673787 79.3125 33.375 C83.20363575 37.52415012 86.05656165 40.58343154 86.875 46.3125 C86.3125 49.375 86.3125 49.375 84.3125 51.375 C81.34043006 51.57386124 78.46150969 51.64764641 75.48828125 51.63378906 C74.1174086 51.63904602 74.1174086 51.63904602 72.71884155 51.64440918 C69.68748455 51.65323649 66.65635952 51.64737381 63.625 51.640625 C61.52514603 51.64197136 59.42529236 51.64391165 57.32543945 51.64642334 C52.92038002 51.64937596 48.51540159 51.64507251 44.11035156 51.63574219 C38.45395969 51.62434761 32.79775759 51.63090634 27.14137268 51.64288712 C22.80406251 51.65010198 18.46679759 51.6478195 14.12948608 51.64263153 C12.04340594 51.641294 9.95732174 51.64294635 7.87124634 51.64759064 C4.95962586 51.65264973 2.048316 51.64495432 -0.86328125 51.63378906 C-1.73191803 51.63783752 -2.60055481 51.64188599 -3.49551392 51.64605713 C-9.45897228 51.60352772 -9.45897228 51.60352772 -11.6875 49.375 C-11.95492554 47.40834045 -11.95492554 47.40834045 -11.97802734 44.97290039 C-11.99078705 44.06177994 -12.00354675 43.15065948 -12.01669312 42.21192932 C-12.01891876 41.22546921 -12.02114441 40.23900909 -12.0234375 39.22265625 C-12.0300943 38.2115831 -12.0367511 37.20050995 -12.04360962 36.15879822 C-12.05374713 34.01774926 -12.0584263 31.87666864 -12.05810547 29.7355957 C-12.06247793 26.45406204 -12.0987847 23.17387355 -12.13671875 19.89257812 C-12.14258671 17.81510878 -12.14655624 15.73763303 -12.1484375 13.66015625 C-12.16280853 12.67572037 -12.17717957 11.69128448 -12.19198608 10.67701721 C-12.18583282 9.7627446 -12.17967957 8.84847198 -12.17333984 7.90649414 C-12.17618988 7.10200333 -12.17903992 6.29751251 -12.18197632 5.46864319 C-11.6875 3.375 -11.6875 3.375 -9.87661743 1.61668396 C-6.67251335 -0.2007081 -3.58381272 -0.07059701 0 0 Z M-0.6875 11.375 C-0.6875 20.945 -0.6875 30.515 -0.6875 40.375 C22.0825 40.375 44.8525 40.375 68.3125 40.375 C64.03145791 35.3804509 60.80468633 31.83209872 55.5 28.375 C54.85401855 27.95202637 54.20803711 27.52905273 53.54248047 27.09326172 C36.79880475 16.50965448 18.90671415 12.77458673 -0.6875 11.375 Z " fill="#000000" transform="translate(263.6875,88.625)"/>
<path d="M0 0 C3.06015385 -0.13402134 5.25982169 -0.12926263 7.96083069 1.39538574 C9.765625 3.15625 9.765625 3.15625 10.26683044 5.2052002 C10.26699661 5.98890991 10.26716278 6.77261963 10.26733398 7.58007812 C10.27671494 8.47110229 10.28609589 9.36212646 10.29576111 10.28015137 C10.28452713 11.23957642 10.27329315 12.19900146 10.26171875 13.1875 C10.26317398 14.17496216 10.26462921 15.16242432 10.26612854 16.17980957 C10.26446832 18.26785227 10.25289334 20.35590706 10.23217773 22.44384766 C10.20323504 25.64408222 10.21156397 28.8426598 10.22460938 32.04296875 C10.21837177 34.07032057 10.20998066 36.09766715 10.19921875 38.125 C10.20215439 39.08442505 10.20509003 40.0438501 10.20811462 41.03234863 C10.19543045 41.9233728 10.18274628 42.81439697 10.16967773 43.73242188 C10.16427475 44.51613159 10.15887177 45.29984131 10.15330505 46.1072998 C9.765625 48.15625 9.765625 48.15625 8.72340393 49.90748596 C5.67714845 51.85053185 2.53752519 51.581542 -0.96289062 51.56030273 C-1.74854904 51.56716599 -2.53420746 51.57402924 -3.34367371 51.58110046 C-5.94284085 51.59941461 -8.54140713 51.5955249 -11.140625 51.58984375 C-12.94519244 51.59440303 -14.74975813 51.59970784 -16.55432129 51.60572815 C-20.33722994 51.61466807 -24.11992758 51.61222578 -27.90283203 51.60229492 C-32.75554605 51.59079825 -37.60753318 51.61102271 -42.46015167 51.64021206 C-46.18675376 51.65853862 -49.91318046 51.65828881 -53.63981628 51.65257454 C-55.42922486 51.65242092 -57.21864502 51.65849866 -59.00801086 51.67086601 C-61.5077608 51.68570951 -64.00615257 51.67514951 -66.50585938 51.65795898 C-67.24777023 51.66762695 -67.98968109 51.67729492 -68.7540741 51.68725586 C-72.04777686 51.63971577 -73.77917207 51.5858891 -76.22570801 49.27674866 C-77.58672373 46.41551494 -77.23962787 45.13578329 -76.234375 42.15625 C-67.16303964 23.842422 -49.17180378 11.57306471 -30.234375 5.15625 C-20.26638014 2.35109746 -10.31210478 0.72112621 0 0 Z M-18.421875 13.78125 C-19.15237061 13.96018799 -19.88286621 14.13912598 -20.63549805 14.32348633 C-36.23107635 18.34055489 -50.58876598 25.84259248 -60.234375 39.15625 C-60.234375 39.48625 -60.234375 39.81625 -60.234375 40.15625 C-40.764375 40.15625 -21.294375 40.15625 -1.234375 40.15625 C-1.234375 30.91625 -1.234375 21.67625 -1.234375 12.15625 C-7.53019305 12.15625 -12.48725163 12.3170813 -18.421875 13.78125 Z " fill="#000000" transform="translate(220.234375,88.84375)"/>
<path d="M0 0 C3.47687854 3.956448 4.37077563 7.52313303 4.2734375 12.80859375 C3.7033694 17.3772824 1.88728247 21.21784467 -1.47265625 24.390625 C-6.24327427 27.59359313 -11.42131703 27.91287539 -17 27 C-22.31565158 24.34217421 -26.10236008 20.69291975 -28 15 C-28.58226942 9.06085195 -27.41188982 4.81432307 -24 0 C-16.09814632 -6.42025611 -7.96907394 -6.48645553 0 0 Z M-15.8125 9.5 C-16.204375 10.325 -16.59625 11.15 -17 12 C-15.27144074 14.14567913 -15.27144074 14.14567913 -13 16 C-10.82423512 16.24774386 -10.82423512 16.24774386 -9 15 C-7.50560887 12.6807393 -7.50560887 12.6807393 -7 10 C-8.64137117 6.7756937 -8.64137117 6.7756937 -11.4375 6.5 C-14.24971334 6.74626912 -14.24971334 6.74626912 -15.8125 9.5 Z " fill="#000000" transform="translate(424,214)"/>
<path d="M0 0 C4.4392404 4.0262878 6.4087333 8.12771874 7.125 14.0625 C6.4353555 19.38261471 4.67816694 22.79142968 0.625 26.25 C-4.35681996 29.95986593 -8.20619313 30.06918692 -14.3125 29.4375 C-18.8402962 28.09877306 -21.44198415 25.77276847 -23.75 21.6875 C-26.07982722 16.28471102 -26.1717148 11.78903524 -24.125 6.1875 C-18.18604361 -2.82333038 -9.41937708 -4.4431024 0 0 Z M-12.3125 9.4375 C-13.60292763 11.70351865 -13.60292763 11.70351865 -14.3125 14.4375 C-13.04897948 16.76261472 -13.04897948 16.76261472 -11.3125 18.4375 C-8.86769921 18.24921228 -8.86769921 18.24921228 -6.3125 17.4375 C-4.95229849 15.46991727 -4.95229849 15.46991727 -4.3125 13.4375 C-5.46934329 11.3379467 -5.46934329 11.3379467 -7.3125 9.4375 C-9.93875139 9.10324265 -9.93875139 9.10324265 -12.3125 9.4375 Z " fill="#000000" transform="translate(168.3125,211.5625)"/>
<path d="M0 0 C1.97806641 -0.02900391 1.97806641 -0.02900391 3.99609375 -0.05859375 C7.5625 0.4375 7.5625 0.4375 10.04296875 2.265625 C11.5625 4.4375 11.5625 4.4375 11.4375 7.625 C11.004375 9.0171875 11.004375 9.0171875 10.5625 10.4375 C7.27896451 12.07926774 3.66730362 11.62204039 0.0625 11.625 C-0.72253906 11.63724609 -1.50757813 11.64949219 -2.31640625 11.66210938 C-4.35813726 11.66736254 -6.39942251 11.5597018 -8.4375 11.4375 C-10.4375 9.4375 -10.4375 9.4375 -10.75 6.5 C-10.4375 3.4375 -10.4375 3.4375 -9.3828125 1.7734375 C-6.43310163 -0.25226755 -3.45110938 -0.03639713 0 0 Z " fill="#000000" transform="translate(262.4375,144.5625)"/>
</svg>
