<?xml version="1.0" encoding="UTF-8"?>
<svg version="1.1" xmlns="http://www.w3.org/2000/svg" width="512" height="512">
<path d="M0 0 C1.37140892 -0.00934319 1.37140892 -0.00934319 2.77052307 -0.01887512 C3.75495895 -0.00966537 4.73939484 -0.00045563 5.75366211 0.0090332 C6.76569199 0.0085347 7.77772186 0.00803619 8.82041931 0.00752258 C10.9597266 0.00986333 13.09903663 0.01959185 15.23828125 0.03613281 C18.52165201 0.05974718 21.80421228 0.05669097 25.08764648 0.05004883 C27.16382322 0.0556247 29.23999653 0.06273401 31.31616211 0.0715332 C32.30262222 0.0706218 33.28908234 0.06971039 34.30543518 0.06877136 C35.67211586 0.08306938 35.67211586 0.08306938 37.06640625 0.09765625 C37.87010147 0.10226364 38.67379669 0.10687103 39.50184631 0.11161804 C41.46850586 0.37231445 41.46850586 0.37231445 43.46850586 2.37231445 C45.60108485 17.81403501 44.81182407 33.93646441 45.03100586 49.49731445 C45.0409042 50.1890123 45.05080254 50.88071014 45.06100082 51.59336853 C45.17084665 59.27187648 45.27359352 66.95044859 45.36889648 74.62915039 C45.42895115 79.43988439 45.49644014 84.2503396 45.57592773 89.06079102 C45.65336909 93.75291339 45.7132106 98.44481294 45.75460815 103.13739014 C45.77209862 104.78383965 45.79636693 106.43023217 45.82766724 108.07647705 C45.86863801 110.30559834 45.88498271 112.53349544 45.89428711 114.76293945 C45.91616089 116.58873535 45.91616089 116.58873535 45.93847656 118.45141602 C45.46850586 121.37231445 45.46850586 121.37231445 43.72370911 123.03160095 C41.18792763 124.53911761 39.83763375 124.74697357 36.9152832 124.74462891 C36.02110687 124.7508577 35.12693054 124.75708649 34.20565796 124.76350403 C32.76955673 124.74968941 32.76955673 124.74968941 31.30444336 124.7355957 C30.31602448 124.73609421 29.32760559 124.73659271 28.30923462 124.73710632 C26.22298163 124.73476828 24.13672569 124.7250557 22.05053711 124.70849609 C18.84845943 124.68485103 15.64721145 124.68794377 12.44506836 124.69458008 C10.41902171 124.68900505 8.39297857 124.68189628 6.36694336 124.6730957 C5.40549408 124.67400711 4.4440448 124.67491852 3.45346069 124.67585754 C2.12165268 124.66155952 2.12165268 124.66155952 0.76293945 124.64697266 C-0.41143173 124.64006157 -0.41143173 124.64006157 -1.60952759 124.63301086 C-3.53149414 124.37231445 -3.53149414 124.37231445 -5.53149414 122.37231445 C-5.67667158 119.46295865 -5.7178021 116.65236845 -5.65649414 113.74731445 C-5.6474707 112.94551758 -5.63844727 112.1437207 -5.62915039 111.31762695 C-5.60555637 109.33572923 -5.56968479 107.35398464 -5.53149414 105.37231445 C-9.57600338 106.12869604 -13.61645062 106.90496092 -17.65649414 107.68481445 C-18.79860352 107.8981543 -19.94071289 108.11149414 -21.11743164 108.33129883 C-29.80627303 110.02360224 -35.5297702 111.93648324 -41.84399414 118.37231445 C-42.31836914 118.85579346 -42.79274414 119.33927246 -43.28149414 119.83740234 C-47.18375459 123.87501265 -50.72084926 128.16448705 -54.21899414 132.5559082 C-57.16087101 136.13883594 -60.29596962 139.511316 -63.45654297 142.90039062 C-66.36270929 146.03751725 -69.07732672 149.26110715 -71.71899414 152.62231445 C-75.8011149 157.69156623 -80.25775453 162.31925172 -84.84399414 166.93481445 C-85.538396 167.63832031 -86.23279785 168.34182617 -86.94824219 169.06665039 C-87.61122314 169.72568359 -88.2742041 170.3847168 -88.95727539 171.0637207 C-89.54935791 171.65354736 -90.14144043 172.24337402 -90.75146484 172.85107422 C-92.53149414 174.37231445 -92.53149414 174.37231445 -94.70043945 175.41113281 C-96.84212914 176.26328944 -96.84212914 176.26328944 -97.40258789 179.05981445 C-97.58950195 180.15293945 -97.77641602 181.24606445 -97.96899414 182.37231445 C-99.07334267 187.94958302 -100.73858808 192.2830698 -103.64086914 197.15356445 C-105.13118139 200.86627215 -103.81472962 203.59394928 -102.49243164 207.2277832 C-100.30367711 214.39017099 -100.25370913 223.31271748 -103.09399414 230.30981445 C-106.84870812 237.30543945 -111.81439908 242.47411902 -118.83227539 246.16918945 C-121.06135648 247.74748135 -121.70490307 248.75551278 -122.53149414 251.37231445 C-122.41426211 253.79510978 -122.19415054 256.21380156 -121.90649414 258.62231445 C-121.3376278 264.26768718 -121.68742875 267.74105777 -124.73852539 272.55200195 C-126.06140312 275.58875575 -125.01490817 278.06648031 -124.12524414 281.13793945 C-122.99760252 285.38143293 -122.77297986 289.68979187 -124.60571289 293.75512695 C-125.73806426 296.95628905 -125.27356901 298.70159842 -124.59399414 301.99731445 C-124.14780234 306.05816122 -124.24463551 307.8675966 -126.28540039 311.45825195 C-128.58091577 314.27942901 -130.89879843 316.86341321 -133.53149414 319.37231445 C-134.33329102 320.15606445 -135.13508789 320.93981445 -135.96118164 321.74731445 C-138.53149414 323.37231445 -138.53149414 323.37231445 -141.50805664 323.5559082 C-145.81919134 321.86821594 -147.45199647 319.24262278 -149.90649414 315.43481445 C-150.35637695 314.80768555 -150.80625977 314.18055664 -151.26977539 313.53442383 C-153.68811173 309.88486763 -154.79020748 307.11562432 -154.69384766 302.70751953 C-154.6757605 301.82883713 -154.65767334 300.95015472 -154.63903809 300.04484558 C-154.47430425 295.95111162 -154.22520091 291.87119844 -153.91040039 287.78637695 C-153.84618393 286.92217133 -153.78196747 286.0579657 -153.71580505 285.16757202 C-153.58058922 283.36084487 -153.44353317 281.55425456 -153.3046875 279.74780273 C-153.09295101 276.98369697 -152.88900192 274.21908994 -152.68579102 271.4543457 C-152.55278952 269.6899879 -152.41934196 267.92566364 -152.28540039 266.16137695 C-152.22494034 265.33844147 -152.16448029 264.51550598 -152.10218811 263.66763306 C-151.82622833 260.13341129 -151.46001556 256.79219212 -150.53149414 253.37231445 C-156.33958708 253.96104283 -156.33958708 253.96104283 -161.53149414 256.37231445 C-162.33686829 258.37965581 -162.33686829 258.37965581 -162.59399414 260.68481445 C-163.63393481 266.23116468 -164.98290908 269.20297472 -169.59399414 272.68481445 C-172.53149414 274.37231445 -172.53149414 274.37231445 -174.53149414 274.37231445 C-174.65524414 275.30172852 -174.77899414 276.23114258 -174.90649414 277.1887207 C-176.19641033 284.92015587 -177.25062083 289.12036416 -183.67602539 293.7199707 C-186.42260211 296.16586955 -186.95956462 298.83193459 -187.66821289 302.35668945 C-189.27022195 306.09712689 -192.85272632 307.09094098 -196.43383789 308.57543945 C-197.43543945 308.9209082 -198.43704102 309.26637695 -199.46899414 309.62231445 C-200.46801758 309.9780957 -201.46704102 310.33387695 -202.49633789 310.70043945 C-205.95387137 311.46581366 -208.15279638 311.42965941 -211.53149414 310.37231445 C-215.50015154 305.63861466 -215.13292497 296.65133337 -214.86450195 290.71801758 C-213.98362333 284.5131189 -209.94168421 279.74987559 -206.30786133 274.84008789 C-203.00443898 270.25089148 -199.97961054 265.47176659 -196.90594482 260.72705078 C-195.11196236 257.96737739 -193.29524551 255.22264953 -191.48461914 252.47387695 C-190.16451656 250.44157599 -188.84670544 248.40778425 -187.53149414 246.37231445 C-186.90807129 245.42163086 -186.28464844 244.47094727 -185.64233398 243.49145508 C-185.08239746 242.6090918 -184.52246094 241.72672852 -183.94555664 240.81762695 C-183.45007324 240.04692871 -182.95458984 239.27623047 -182.4440918 238.48217773 C-181.1623571 236.14038923 -181.1623571 236.14038923 -182.65649414 232.62231445 C-182.98004883 231.98551758 -183.30360352 231.3487207 -183.63696289 230.69262695 C-186.20202155 224.03915601 -185.33526602 215.60655661 -182.96899414 208.99731445 C-178.35616677 199.26089682 -171.51495201 194.22557889 -161.53149414 190.37231445 C-160.54149414 190.37231445 -159.55149414 190.37231445 -158.53149414 190.37231445 C-158.62688477 189.7174707 -158.72227539 189.06262695 -158.82055664 188.38793945 C-159.92568894 179.28987355 -159.181607 170.84304049 -155.53149414 162.37231445 C-156.50989258 161.95272461 -156.50989258 161.95272461 -157.50805664 161.5246582 C-158.38204102 161.12375977 -159.25602539 160.72286133 -160.15649414 160.30981445 C-161.01500977 159.92696289 -161.87352539 159.54411133 -162.75805664 159.1496582 C-169.17190456 155.03937538 -172.99884177 148.37483338 -176.90649414 141.99731445 C-177.94183599 140.32995399 -178.97836121 138.66332794 -180.01586914 136.99731445 C-180.57209961 136.10270508 -181.12833008 135.2080957 -181.70141602 134.28637695 C-183.70849898 131.09046683 -185.74817894 127.91645342 -187.79711914 124.74731445 C-188.33962814 123.90672989 -188.33962814 123.90672989 -188.89309692 123.04916382 C-190.68296259 120.27606288 -192.47630464 117.50532665 -194.27514648 114.73803711 C-194.92950684 113.72273926 -195.58386719 112.70744141 -196.25805664 111.66137695 C-196.84151855 110.76112793 -197.42498047 109.86087891 -198.02612305 108.93334961 C-201.82821669 102.46498076 -202.58838918 96.7791724 -201.53149414 89.37231445 C-197.91486159 78.03581534 -190.37101803 70.28951566 -182.15307617 62.0222168 C-180.05826679 59.89082237 -178.07150823 57.67499645 -176.09399414 55.43481445 C-172.84610597 51.79452344 -169.52399171 48.23392458 -166.17285156 44.68920898 C-160.72678151 38.92806578 -155.38923459 33.12394079 -150.28149414 27.05981445 C-131.16769649 4.53726767 -131.16769649 4.53726767 -115.28857422 2.63964844 C-93.9212413 1.11926183 -72.14023207 5.49575319 -51.05249023 8.48187256 C-47.31861681 9.00798684 -43.5833464 9.52376899 -39.84800339 10.03932953 C-36.24461786 10.53721755 -32.64179322 11.03906123 -29.03916168 11.54237366 C-27.32160375 11.78228699 -25.60394773 12.02149919 -23.88619232 12.25999451 C-21.50797972 12.59125705 -19.13049458 12.92729697 -16.75317383 13.26489258 C-16.04686829 13.36258438 -15.34056274 13.46027618 -14.612854 13.56092834 C-9.7608627 14.25763017 -9.7608627 14.25763017 -7.53149414 15.37231445 C-7.56629883 14.54086914 -7.60110352 13.70942383 -7.63696289 12.8527832 C-7.6640332 11.76610352 -7.69110352 10.67942383 -7.71899414 9.55981445 C-7.75379883 8.48086914 -7.78860352 7.40192383 -7.82446289 6.2902832 C-7.53149414 3.37231445 -7.53149414 3.37231445 -6.29640198 1.71321106 C-4.04888471 0.00564978 -2.80454486 -0.00219425 0 0 Z M3.46850586 11.37231445 C3.61917705 23.03250787 3.61917705 23.03250787 3.77514648 34.69262695 C3.84032851 39.47874007 3.90501642 44.26485439 3.96582031 49.05102539 C4.2392386 70.50327412 4.74029514 91.92987458 5.46850586 113.37231445 C15.03850586 113.37231445 24.60850586 113.37231445 34.46850586 113.37231445 C34.5172095 96.44431953 34.36544162 79.52514379 34.09619141 62.59960938 C34.05196268 59.81057856 34.01038335 57.02152798 33.97119141 54.23242188 C33.76973915 39.92267238 33.56371629 25.64686388 32.46850586 11.37231445 C22.89850586 11.37231445 13.32850586 11.37231445 3.46850586 11.37231445 Z M-132.59399414 23.99731445 C-133.8450293 25.3140918 -133.8450293 25.3140918 -135.12133789 26.6574707 C-138.15785841 30.07786253 -141.00872337 33.62424112 -143.86352539 37.1965332 C-149.07916323 43.54109699 -154.92555044 49.36573139 -160.58178711 55.3137207 C-164.82336059 59.79217645 -168.99243398 64.33724493 -173.15991211 68.88452148 C-174.53633175 70.37756194 -175.92503133 71.85828723 -177.31665039 73.3371582 C-186.64033958 83.11088635 -186.64033958 83.11088635 -190.88305664 95.5871582 C-190.43117232 100.45244602 -188.67124227 103.01556132 -185.90649414 106.93481445 C-184.89711503 108.42594268 -183.88938684 109.91818939 -182.88305664 111.41137695 C-182.34197266 112.20576172 -181.80088867 113.00014648 -181.2434082 113.81860352 C-177.56218384 119.30999069 -174.08879418 124.93765468 -170.56811523 130.53271484 C-167.72114174 135.02778347 -164.83264389 139.49463445 -161.85961914 143.9074707 C-161.31724609 144.71708252 -160.77487305 145.52669434 -160.21606445 146.36083984 C-157.68189484 149.38678527 -155.50967525 150.22346081 -151.65649414 150.80981445 C-147.28068423 150.19720107 -145.48976762 148.60577617 -142.53149414 145.37231445 C-140.63745487 140.00586986 -141.91688611 136.34696458 -144.09008789 131.36450195 C-145.50649719 128.42420514 -146.98288411 125.52219658 -148.4753418 122.62011719 C-159.38103294 101.34570027 -159.38103294 101.34570027 -156.53149414 91.37231445 C-153.72251841 87.28120152 -150.6153123 84.82307342 -146.48071289 82.12231445 C-145.90368118 81.74171875 -145.32664948 81.36112305 -144.73213196 80.96899414 C-142.89939073 79.76231409 -141.05957759 78.56699012 -139.21899414 77.37231445 C-137.39453864 76.17775638 -135.57162335 74.98088058 -133.74905396 73.78344727 C-132.57994162 73.01578162 -131.4099317 72.24948102 -130.23898315 71.48461914 C-127.22840706 69.51322639 -124.2676788 67.49719306 -121.36352539 65.37231445 C-116.09880229 61.65433069 -110.78120749 61.74284692 -104.53149414 62.37231445 C-101.28149414 63.93481445 -101.28149414 63.93481445 -98.53149414 66.37231445 C-97.98106445 66.81188477 -97.43063477 67.25145508 -96.86352539 67.7043457 C-90.3217318 73.40855865 -85.653981 81.88142332 -83.91821289 90.37231445 C-83.46743264 99.43943716 -87.95413617 105.98456262 -92.73071289 113.31762695 C-96.87138761 119.80133087 -100.58562139 126.50506831 -104.28149414 133.24731445 C-105.58737823 135.62048926 -106.895327 137.99251478 -108.20336914 140.36450195 C-108.77152344 141.39945801 -109.33967773 142.43441406 -109.92504883 143.50073242 C-110.967832 145.36474697 -112.059055 147.20276855 -113.2043457 149.00561523 C-115.13972201 152.45696511 -115.40395048 155.58213527 -114.53149414 159.37231445 C-112.97030697 162.30646056 -111.2079377 164.3989543 -108.53149414 166.37231445 C-105.11974053 167.53964086 -105.11974053 167.53964086 -101.53149414 166.37231445 C-98.52347522 164.36902317 -96.07139652 161.93113604 -93.53149414 159.37231445 C-92.80833008 158.68524414 -92.08516602 157.99817383 -91.34008789 157.2902832 C-86.43419667 152.55503168 -82.10679207 147.51068647 -77.84790039 142.19262695 C-74.70294129 138.36351992 -71.34293105 134.7522008 -67.98461914 131.1105957 C-65.64317484 128.49697715 -63.45729767 125.81180299 -61.28149414 123.05981445 C-44.08938212 101.94242375 -44.08938212 101.94242375 -32.53149414 99.37231445 C-31.81735352 99.20586426 -31.10321289 99.03941406 -30.36743164 98.86791992 C-22.46183866 97.03927492 -14.56983121 95.4908667 -6.53149414 94.37231445 C-6.50822124 86.83511424 -6.49050337 79.29791781 -6.47968197 71.76068974 C-6.47448563 68.26004317 -6.4674477 64.75942138 -6.45605469 61.25878906 C-6.44301018 57.22501399 -6.43823908 53.19126454 -6.43383789 49.1574707 C-6.42867661 47.91336929 -6.42351532 46.66926788 -6.41819763 45.38746643 C-6.4177864 38.96001243 -6.66669773 32.74308113 -7.53149414 26.37231445 C-10.68251547 25.92034938 -13.8335604 25.46854982 -16.98461914 25.0168457 C-17.97488098 24.87482727 -18.96514282 24.73280884 -19.9854126 24.58648682 C-25.49956972 23.79624035 -31.01416034 23.00920308 -36.52954102 22.22753906 C-46.66684663 20.78971737 -56.80120645 19.34359257 -66.92211914 17.79418945 C-80.13880112 15.78919913 -93.26083525 13.93157525 -106.65649414 13.74731445 C-107.62780273 13.72419189 -108.59911133 13.70106934 -109.59985352 13.67724609 C-118.79810633 13.78088148 -126.25103568 17.30756285 -132.59399414 23.99731445 Z M-118.83618164 76.38793945 C-119.43778107 76.80017761 -120.03938049 77.21241577 -120.65921021 77.637146 C-122.58108136 78.95691283 -124.49381789 80.28926624 -126.40649414 81.62231445 C-127.68584965 82.50468443 -128.96579184 83.3862044 -130.24633789 84.2668457 C-132.61578589 85.89729093 -134.98123055 87.53325671 -137.34350586 89.17407227 C-140.38652976 91.27235586 -143.4504028 93.33064842 -146.53149414 95.37231445 C-146.18861368 103.2667288 -143.72038126 108.94868189 -140.15649414 115.93481445 C-131.47870456 133.2790944 -131.47870456 133.2790944 -130.53149414 142.37231445 C-127.56149414 142.37231445 -124.59149414 142.37231445 -121.53149414 142.37231445 C-121.15452393 141.6580127 -120.77755371 140.94371094 -120.38916016 140.20776367 C-107.7361775 116.29634235 -107.7361775 116.29634235 -102.40649414 108.24731445 C-101.7168457 107.19930664 -101.02719727 106.15129883 -100.31665039 105.0715332 C-99.72754883 104.18079102 -99.13844727 103.29004883 -98.53149414 102.37231445 C-95.83816058 98.26585523 -94.08831494 94.93260191 -94.84399414 89.93481445 C-96.89108133 82.89185971 -102.33299856 76.22543333 -108.53149414 72.37231445 C-113.17474731 72.37231445 -115.20666207 73.83489391 -118.83618164 76.38793945 Z M-139.24633789 158.8449707 C-146.61678216 166.77804431 -147.98763065 175.09174145 -147.67211914 185.66137695 C-147.62571289 186.55598633 -147.57930664 187.4505957 -147.53149414 188.37231445 C-146.79286133 188.21633789 -146.05422852 188.06036133 -145.29321289 187.8996582 C-135.13512338 185.95064738 -126.69451233 185.67879373 -117.40649414 190.63012695 C-115.36028732 191.67257445 -115.36028732 191.67257445 -112.53149414 190.37231445 C-110.11893028 185.81524939 -109.14864995 182.60451833 -109.53149414 177.37231445 C-110.12317383 177.09258789 -110.71485352 176.81286133 -111.32446289 176.5246582 C-116.86379044 173.71433052 -120.90124034 171.12792866 -123.53149414 165.37231445 C-124.75722192 161.41227085 -125.71107445 157.43439245 -126.53149414 153.37231445 C-131.4821632 153.37231445 -135.51797378 155.64316371 -139.24633789 158.8449707 Z M-148.53149414 203.37231445 C-152.16195125 208.55610147 -154.37350868 213.82666331 -153.94555664 220.2121582 C-152.68160457 226.80617229 -149.43833309 230.98815679 -144.21508789 235.0480957 C-139.63803653 238.64814306 -139.63803653 238.64814306 -139.2154541 241.52044678 C-139.24433716 242.32846741 -139.27322021 243.13648804 -139.30297852 243.96899414 C-139.33029053 244.85889038 -139.35760254 245.74878662 -139.38574219 246.66564941 C-139.6043127 250.72458064 -139.85595895 254.77405508 -140.18774414 258.82543945 C-140.32452971 260.59756971 -140.46124628 262.3697053 -140.59790039 264.1418457 C-140.8134488 266.87750204 -141.03074895 269.61300704 -141.24975586 272.34838867 C-144.04981528 290.57324319 -144.04981528 290.57324319 -140.53149414 307.37231445 C-138.55149414 306.38231445 -138.55149414 306.38231445 -136.53149414 305.37231445 C-136.87180664 303.45418945 -136.87180664 303.45418945 -137.21899414 301.49731445 C-137.68081213 297.6265505 -137.2645674 294.97492301 -135.96899414 291.30981445 C-134.48789893 286.99328921 -134.59662968 284.58811634 -135.96508789 280.30200195 C-137.49418322 275.09253236 -137.04044555 270.92731826 -134.46899414 266.18481445 C-134.10161133 265.5196582 -133.73422852 264.85450195 -133.35571289 264.16918945 C-132.16971483 261.58360125 -132.74411551 260.06252477 -133.53149414 257.37231445 C-134.48161587 250.17442256 -132.93336063 244.20611342 -128.53149414 238.37231445 C-126.58024346 237.06613843 -124.70444044 236.2288677 -122.52758789 235.3605957 C-117.88839404 233.06369542 -114.41894806 228.1126941 -112.53149414 223.37231445 C-112.25345722 220.65424292 -112.25345722 220.65424292 -112.34399414 217.80981445 C-112.35366211 216.38475586 -112.35366211 216.38475586 -112.36352539 214.9309082 C-112.4308798 212.25182026 -112.4308798 212.25182026 -113.53149414 209.37231445 C-118.27524564 211.18610179 -122.81265189 213.21209594 -127.03149414 216.05981445 C-130.1254733 217.68415351 -132.07761107 217.73974882 -135.53149414 217.37231445 C-138.87414619 216.16524566 -139.4785398 215.45174596 -141.53149414 212.37231445 C-141.79711914 210.0324707 -141.79711914 210.0324707 -141.78149414 207.43481445 C-141.78665039 206.58016602 -141.79180664 205.72551758 -141.79711914 204.8449707 C-141.51863047 202.25256879 -140.83818586 200.60717211 -139.53149414 198.37231445 C-143.270338 198.37231445 -145.95089567 200.90247128 -148.53149414 203.37231445 Z M-124.53149414 199.37231445 C-123.87149414 200.03231445 -123.21149414 200.69231445 -122.53149414 201.37231445 C-122.53149414 200.71231445 -122.53149414 200.05231445 -122.53149414 199.37231445 C-123.19149414 199.37231445 -123.85149414 199.37231445 -124.53149414 199.37231445 Z M-166.18774414 205.91137695 C-170.75288316 211.07617406 -173.20713566 214.80437118 -173.84399414 221.80981445 C-173.48842867 225.86326087 -172.18315772 228.67258804 -170.53149414 232.37231445 C-169.30713586 236.77033828 -169.22999587 239.41905141 -171.41821289 243.3605957 C-172.33155619 244.81491798 -173.26656849 246.25578169 -174.21899414 247.68481445 C-174.7164917 248.4631665 -175.21398926 249.24151855 -175.7265625 250.04345703 C-177.30682554 252.5011228 -178.91546645 254.93804489 -180.53149414 257.37231445 C-181.04035156 258.14671875 -181.54920898 258.92112305 -182.07348633 259.71899414 C-186.46607952 266.40288191 -190.88558364 273.06617433 -195.51196289 279.59106445 C-196.21276978 280.59617065 -196.21276978 280.59617065 -196.92773438 281.62158203 C-197.80020193 282.870729 -198.68557317 284.11101 -199.58642578 285.33984375 C-202.45058134 289.46918416 -202.96109648 292.40029914 -202.53149414 297.37231445 C-200.10229549 297.50672224 -200.10229549 297.50672224 -197.53149414 296.37231445 C-196.80263405 294.41764421 -196.08615787 292.4561211 -195.47290039 290.4621582 C-194.36583036 288.0045546 -193.29781752 287.24928325 -191.09399414 285.74731445 C-187.27011469 282.8615177 -186.7094753 280.03008246 -185.65649414 275.43481445 C-184.07555549 268.88521147 -182.24002163 266.760977 -176.69555664 263.2121582 C-173.92596937 260.8575091 -173.19235606 258.70942905 -171.96899414 255.30981445 C-169.83730254 249.40325231 -167.16006845 246.20338662 -161.53149414 243.37231445 C-159.42602539 242.76293945 -159.42602539 242.76293945 -157.53149414 242.37231445 C-156.78899414 242.18668945 -156.04649414 242.00106445 -155.28149414 241.80981445 C-154.70399414 241.66543945 -154.12649414 241.52106445 -153.53149414 241.37231445 C-154.27399414 240.71231445 -155.01649414 240.05231445 -155.78149414 239.37231445 C-160.33131514 234.84834471 -163.41152355 228.41039321 -163.66430664 222.0090332 C-163.66172852 220.70579102 -163.65915039 219.40254883 -163.65649414 218.05981445 C-163.65907227 216.76430664 -163.66165039 215.46879883 -163.66430664 214.1340332 C-163.54577099 210.77668522 -163.17452143 207.66400176 -162.53149414 204.37231445 C-164.66413606 204.14540908 -164.66413606 204.14540908 -166.18774414 205.91137695 Z " fill="#000000" transform="translate(420.531494140625,25.627685546875)"/>
<path d="M0 0 C2.97678937 2.69636719 5.77569008 5.84317387 6.203125 9.953125 C6.3690922 18.08551771 3.5833026 23.11482353 -2 29 C-4.97241211 31.29492188 -4.97241211 31.29492188 -8.27734375 33.46875 C-8.87640533 33.86617401 -9.47546692 34.26359802 -10.09268188 34.67306519 C-12.03501237 35.95799921 -13.98592206 37.22916484 -15.9375 38.5 C-17.29656613 39.394702 -18.65520474 40.29005373 -20.01342773 41.18603516 C-28.68836445 46.89528243 -37.42806698 52.50172318 -46.20922852 58.04614258 C-52.48533113 62.01360507 -58.6977532 66.06784284 -64.875 70.1875 C-65.74737305 70.76886719 -66.61974609 71.35023438 -67.51855469 71.94921875 C-71.48167297 74.6023021 -75.42070666 77.28064171 -79.30859375 80.04296875 C-97.77855943 93.1485367 -115.22358685 100.78153303 -138.09958076 100.21076775 C-140.70733901 100.15053206 -143.31347189 100.12507161 -145.92185974 100.10902405 C-153.32579147 100.0613576 -160.72797851 99.98542693 -168.13012695 99.81176758 C-199.29539226 98.99254068 -199.29539226 98.99254068 -226 114 C-224.6010729 117.62325889 -223.00215463 120.6851114 -220.875 123.9375 C-219.06387145 126.93231453 -218.01705247 128.91628786 -217.3125 132.375 C-218.72419584 137.76511137 -224.98653882 140.31880483 -229.5078125 143.0390625 C-230.115112 143.40599213 -230.7224115 143.77292175 -231.34811401 144.15097046 C-233.27173246 145.31235436 -235.19823537 146.46884472 -237.125 147.625 C-239.05828247 148.78930311 -240.99095587 149.95460865 -242.92330933 151.12045288 C-244.67064268 152.17400365 -246.41951032 153.22500856 -248.16845703 154.27587891 C-250.13841667 155.47538356 -252.08094632 156.72063088 -254 158 C-257.25 158.75 -257.25 158.75 -261 158 C-263.97573426 155.13393653 -265.91261845 151.53219937 -268 148 C-268.84802105 146.59839081 -269.69705242 145.19739262 -270.546875 143.796875 C-272.5713249 140.44572249 -274.57795561 137.08444307 -276.578125 133.71875 C-280.22001761 127.60784967 -283.94985658 121.55266231 -287.6875 115.5 C-294.20260704 104.93970391 -300.68201285 94.35854171 -307.09814453 83.73779297 C-310.0562847 78.84197529 -313.01577214 73.94980799 -316.0703125 69.11328125 C-316.502229 68.42129639 -316.93414551 67.72931152 -317.37915039 67.01635742 C-318.45333951 65.29947212 -319.54040912 63.59066244 -320.62890625 61.8828125 C-322.29240521 58.38519929 -322.98531505 56.79272022 -322 53 C-319.30530111 50.52592985 -316.14728995 48.83866871 -313 47 C-311.33747488 45.93679199 -309.67516209 44.87322243 -308.01800537 43.80166626 C-305.60822859 42.25264236 -303.17645704 40.74019121 -300.74267578 39.22924805 C-299.48932968 38.44627537 -298.24064982 37.65578705 -296.99658203 36.8581543 C-295.1727581 35.69019175 -293.33483177 34.54812876 -291.4921875 33.41015625 C-290.41308105 32.73090088 -289.33397461 32.05164551 -288.22216797 31.35180664 C-284.28408817 29.69965118 -282.08910537 29.89997785 -278 31 C-275.78515625 33.50390625 -275.78515625 33.50390625 -274.0625 36.5625 C-273.47597656 37.57441406 -272.88945312 38.58632813 -272.28515625 39.62890625 C-271.86105469 40.41136719 -271.43695313 41.19382812 -271 42 C-267.20986209 40.38851619 -264.37121722 37.8739298 -261.3125 35.1875 C-218.76118799 -1.4154498 -218.76118799 -1.4154498 -191.93457031 -0.17041016 C-187.25299546 0.24197491 -183.25818758 2.13080792 -179 4 C-175.88915238 5.28683737 -172.76110563 6.52611074 -169.625 7.75 C-168.74763184 8.09337402 -167.87026367 8.43674805 -166.96630859 8.79052734 C-157.93209356 12.21599398 -148.66822033 14.69212753 -139.30126953 17.03417969 C-127.57190495 20.06687947 -115.10992834 24.41752569 -108.0625 34.875 C-107.711875 35.57625 -107.36125 36.2775 -107 37 C-103.10580095 35.55124527 -99.61559254 33.73311362 -96.01953125 31.65625 C-95.45383423 31.33092285 -94.88813721 31.0055957 -94.30529785 30.67041016 C-93.0978265 29.97571192 -91.89115039 29.27962991 -90.68521118 28.58227539 C-88.15634496 27.12079553 -85.6224332 25.668176 -83.08866882 24.21520996 C-81.20718822 23.13629005 -79.32621755 22.0564854 -77.4453125 20.9765625 C-20.21373368 -11.85697365 -20.21373368 -11.85697365 0 0 Z M-73.70019531 32.05322266 C-80.66797781 36.1639875 -87.69522652 40.172777 -94.71069336 44.20141602 C-95.75104736 44.80010498 -96.79140137 45.39879395 -97.86328125 46.015625 C-98.78407471 46.54446289 -99.70486816 47.07330078 -100.65356445 47.61816406 C-104.3017056 49.76658555 -106.11865396 50.85893205 -107.5625 54.8125 C-109.72544698 59.33577315 -112.57109072 60.93101621 -116.9765625 63.08984375 C-125.42879894 65.63425084 -134.20566315 64.99077781 -142.91015625 64.4765625 C-144.72138222 64.37811539 -144.72138222 64.37811539 -146.56919861 64.27767944 C-149.10826276 64.13826005 -151.64712852 63.99518412 -154.18579102 63.84863281 C-158.05379874 63.62550194 -161.92228547 63.41332068 -165.79101562 63.203125 C-168.26826462 63.06574201 -170.74547949 62.92774197 -173.22265625 62.7890625 C-174.36976578 62.72546539 -175.51687531 62.66186829 -176.69874573 62.59634399 C-182.82947694 62.24020664 -188.90367118 61.74228765 -195 61 C-195 58.03 -195 55.06 -195 52 C-186.15202371 51.84739387 -177.38392629 52.28085639 -168.56109619 52.85586548 C-156.92249499 53.60189726 -145.28977519 54.22116998 -133.625 54.3125 C-132.61091064 54.32990234 -131.59682129 54.34730469 -130.55200195 54.36523438 C-123.77170607 54.36287518 -123.77170607 54.36287518 -118 51 C-115.72593356 48.25990149 -115.72593356 48.25990149 -116.1953125 45.5625 C-117.82828286 40.36236137 -121.59018329 36.41933457 -126.25537109 33.67163086 C-134.19301254 30.06452155 -142.34823729 27.77083325 -150.75 25.5625 C-161.53228674 22.72701531 -171.71942539 19.34119758 -182 15 C-192.55058391 10.64402318 -200.32825903 9.31220351 -211.16015625 13.6875 C-221.91901755 18.65995859 -230.89479369 25.54588545 -240 33 C-240.97195312 33.78890625 -241.94390625 34.5778125 -242.9453125 35.390625 C-244.74211313 36.85468477 -246.53523073 38.32327894 -248.32421875 39.796875 C-250.21726512 41.35552924 -252.1163099 42.90691153 -254.01953125 44.453125 C-255.00308594 45.25234375 -255.98664063 46.0515625 -257 46.875 C-257.886875 47.59429687 -258.77375 48.31359375 -259.6875 49.0546875 C-261.56692999 50.63569448 -263.28147541 52.25237936 -265 54 C-264.69521729 54.48952148 -264.39043457 54.97904297 -264.07641602 55.48339844 C-262.57023028 57.90463997 -261.06646162 60.32737634 -259.5625 62.75 C-258.99281494 63.66491211 -258.42312988 64.57982422 -257.83618164 65.52246094 C-254.32665031 71.17782535 -250.88114377 76.86572097 -247.4921875 82.59375 C-246.35003574 84.51335373 -245.2068968 86.43236609 -244.06344604 88.35119629 C-243.3134303 89.61602838 -242.56790972 90.88353692 -241.82693481 92.15368652 C-240.77980769 93.94782207 -239.71773725 95.73229393 -238.65234375 97.515625 C-238.04382568 98.54977539 -237.43530762 99.58392578 -236.80834961 100.64941406 C-235.24408562 103.06902878 -235.24408562 103.06902878 -233.13356018 103.82974243 C-230.93570807 104.21469095 -230.93570807 104.21469095 -229.10107422 102.84622192 C-228.08811279 101.96932205 -228.08811279 101.96932205 -227.0546875 101.07470703 C-208.9206052 86.909832 -190.877954 88.24300419 -168.81939697 88.80828857 C-161.3670825 88.98462221 -153.91268082 89.03183243 -146.4586792 89.08655167 C-143.89273467 89.11625859 -141.32932891 89.17820093 -138.76416016 89.24655151 C-115.12303781 89.7181516 -98.7197869 79.88961744 -79.95703125 66.50390625 C-72.80245873 61.41196275 -65.40781586 56.71178407 -58 52 C-27.49161197 36.36880842 -27.49161197 36.36880842 -5.28515625 13.27734375 C-5.19105469 12.52582031 -5.09695313 11.77429688 -5 11 C-25.00985914 -1.63780577 -57.10727232 22.19845143 -73.70019531 32.05322266 Z M-288.4519043 45.17163086 C-289.39976807 45.76339111 -290.34763184 46.35515137 -291.32421875 46.96484375 C-292.35224609 47.59970703 -293.38027344 48.23457031 -294.43945312 48.88867188 C-295.51130859 49.56478516 -296.58316406 50.24089844 -297.6875 50.9375 C-298.77095703 51.60974609 -299.85441406 52.28199219 -300.97070312 52.97460938 C-303.65296437 54.64068354 -306.32892016 56.31607897 -309 58 C-303.9520236 67.02350137 -298.66017587 75.85744431 -293.19580078 84.63476562 C-289.15366979 91.12886962 -285.15698512 97.64876156 -281.1875 104.1875 C-279.42858695 107.07958536 -277.6689961 109.97125722 -275.90917969 112.86279297 C-274.92407545 114.48153843 -273.93902042 116.10031401 -272.95471191 117.71954346 C-270.76875113 121.31544771 -268.57843877 124.90863751 -266.38247681 128.4984436 C-265.33237208 130.21746932 -264.2866262 131.93915531 -263.2409668 133.66088867 C-262.60070557 134.70607666 -261.96044434 135.75126465 -261.30078125 136.828125 C-260.73528564 137.7552832 -260.16979004 138.68244141 -259.5871582 139.63769531 C-257.94105751 142.25153448 -257.94105751 142.25153448 -255 145 C-247.41 140.38 -239.82 135.76 -232 131 C-233.06082691 126.75669236 -234.83960224 123.57366955 -237.0625 119.875 C-237.4965918 119.14490723 -237.93068359 118.41481445 -238.37792969 117.66259766 C-243.79073193 108.60349109 -249.35379547 99.63496351 -254.8984375 90.65625 C-258.75173432 84.41256603 -262.56738704 78.14660971 -266.375 71.875 C-268.05700085 69.11345655 -269.73998671 66.35251618 -271.42333984 63.59179688 C-272.46062593 61.88665146 -273.49489307 60.17966524 -274.52587891 58.47070312 C-275.90549788 56.18408256 -277.29520435 53.90391617 -278.6875 51.625 C-279.08565918 50.95839355 -279.48381836 50.29178711 -279.89404297 49.60498047 C-282.99223925 44.33686646 -282.99223925 44.33686646 -288.4519043 45.17163086 Z " fill="#000000" transform="translate(368,328)"/>
</svg>
