<?xml version="1.0" standalone="no"?>
<!DOCTYPE svg PUBLIC "-//W3C//DTD SVG 20010904//EN"
 "http://www.w3.org/TR/2001/REC-SVG-20010904/DTD/svg10.dtd">
<svg version="1.0" xmlns="http://www.w3.org/2000/svg"
 width="512.000000pt" height="512.000000pt" viewBox="0 0 512.000000 512.000000"
 preserveAspectRatio="xMidYMid meet">

<g transform="translate(0.000000,512.000000) scale(0.100000,-0.100000)"
fill="#000000" stroke="none">
<path d="M3838 5105 c-334 -55 -619 -260 -804 -580 -10 -18 -14 -18 -105 8
-825 231 -1720 -20 -2303 -645 -329 -353 -528 -767 -603 -1248 -24 -160 -24
-500 0 -660 80 -513 295 -940 656 -1301 422 -421 944 -650 1541 -676 532 -22
1047 140 1490 471 108 80 319 286 402 392 164 208 305 469 386 716 85 259 117
457 116 728 0 237 -22 407 -82 619 -25 91 -25 95 -7 105 396 229 613 608 591
1036 -24 493 -363 901 -847 1020 -111 27 -313 35 -431 15z m337 -200 c104 -18
210 -58 308 -116 101 -59 258 -219 316 -322 258 -458 84 -1025 -386 -1261 -40
-20 -77 -36 -83 -36 -6 0 -10 56 -10 154 l0 154 43 25 c207 124 339 395 307
634 -30 225 -162 418 -351 512 -45 23 -90 41 -101 41 -28 0 -76 -27 -88 -49
-6 -12 -10 -97 -10 -205 l0 -186 -52 -26 -51 -26 -49 23 -48 22 -1 171 c0 200
-8 232 -60 260 -32 17 -42 18 -75 8 -109 -33 -265 -162 -332 -275 -18 -30 -45
-88 -60 -129 -25 -66 -27 -86 -27 -213 0 -126 3 -147 27 -213 51 -142 140
-256 266 -341 l62 -42 0 -149 c0 -125 -2 -150 -15 -150 -8 0 -52 19 -98 43
-238 123 -398 323 -468 587 -29 108 -32 307 -6 414 40 161 114 298 226 418
141 151 327 248 541 281 61 10 195 6 275 -8z m-1450 -530 c144 -29 225 -53
225 -65 0 -5 -7 -37 -15 -72 -8 -35 -17 -105 -21 -156 -6 -77 -10 -92 -22 -87
-86 33 -290 77 -419 90 l-63 7 0 162 0 162 98 -9 c53 -4 151 -19 217 -32z
m-515 -124 l0 -160 -57 -6 c-361 -37 -688 -170 -967 -393 l-68 -55 -115 115
-115 116 73 61 c167 140 404 277 614 356 179 67 432 122 573 124 l62 1 0 -159z
m2216 14 c112 -225 18 -502 -209 -613 -100 -48 -97 -40 -97 -303 0 -259 9
-239 -100 -239 -107 0 -98 -20 -102 234 -4 260 -2 256 -107 311 -89 47 -171
132 -214 222 -30 65 -32 74 -32 188 0 114 2 123 31 186 30 63 96 149 115 149
5 0 9 -58 9 -128 0 -127 0 -129 28 -154 40 -39 229 -128 269 -128 22 0 77 22
155 61 147 75 148 77 148 246 l1 118 35 -40 c19 -22 50 -72 70 -110z m-1801
-405 c108 -23 275 -75 300 -94 9 -6 29 -51 45 -99 54 -160 130 -285 249 -410
129 -135 277 -230 446 -285 87 -29 91 -32 112 -75 33 -67 80 -244 99 -371 22
-146 14 -388 -16 -531 -137 -647 -644 -1136 -1291 -1246 -172 -30 -442 -23
-599 14 -319 76 -546 203 -776 432 -228 227 -355 455 -431 775 -37 156 -44
427 -15 596 60 350 220 648 476 891 238 225 521 364 853 418 129 21 416 13
548 -15z m-1759 -251 l112 -111 -78 -99 c-193 -249 -325 -570 -361 -883 l-13
-106 -163 0 -163 0 6 63 c33 369 150 703 349 1002 72 108 180 245 193 245 4 0
57 -50 118 -111z m3469 -711 c27 -91 64 -289 72 -390 l9 -98 -162 0 -162 0 -7
63 c-13 129 -57 333 -90 419 -5 13 10 16 87 22 51 4 118 13 148 20 88 22 87
22 105 -36z m-3801 -760 c33 -337 172 -679 382 -939 l62 -77 -113 -112 c-62
-62 -118 -110 -124 -106 -20 13 -128 151 -188 241 -197 295 -314 633 -347
1003 l-6 62 164 0 163 0 7 -72z m3873 -23 c-25 -383 -209 -827 -476 -1150
l-63 -78 -116 116 -115 115 55 68 c220 273 356 609 393 967 l6 57 161 0 161 0
-6 -95z m-3037 -1320 c231 -143 502 -235 768 -261 l72 -7 0 -163 0 -164 -62 6
c-440 40 -830 196 -1165 466 -40 32 -75 63 -79 69 -4 6 44 62 106 124 l112
113 77 -62 c42 -34 119 -89 171 -121z m2350 -47 c0 -13 -136 -120 -245 -193
-293 -197 -637 -316 -1002 -349 l-63 -6 0 163 0 163 107 13 c314 36 636 168
880 361 l98 77 113 -111 c61 -61 112 -114 112 -118z"/>
<path d="M2385 2851 c-11 -5 -28 -17 -37 -28 -19 -21 -248 -863 -248 -912 0
-17 11 -42 26 -60 21 -25 33 -31 66 -31 46 0 73 12 88 40 15 29 240 875 240
905 0 55 -83 108 -135 86z"/>
<path d="M1410 2823 c-25 -23 -60 -106 -195 -462 -91 -238 -165 -440 -165
-448 0 -30 33 -75 63 -88 70 -29 112 3 156 116 l28 74 186 3 185 2 28 -72 c38
-98 50 -115 89 -128 49 -16 101 8 121 57 l16 38 -163 435 c-184 491 -189 500
-273 500 -36 0 -52 -6 -76 -27z m135 -472 c25 -67 45 -124 45 -126 0 -3 -47
-5 -105 -5 -58 0 -105 2 -105 5 0 3 23 67 52 141 34 91 54 131 59 122 4 -8 29
-70 54 -137z"/>
<path d="M3073 2786 c-179 -44 -334 -203 -378 -388 -28 -121 -16 -225 41 -346
39 -81 121 -172 195 -215 150 -88 340 -98 481 -26 58 29 145 114 151 147 7 36
-15 86 -47 107 -38 25 -91 14 -135 -29 -59 -56 -97 -71 -181 -71 -60 0 -86 5
-130 26 -70 33 -126 89 -159 159 -36 77 -37 192 -1 265 83 170 278 233 450
145 55 -28 70 -31 99 -24 69 18 98 109 51 159 -80 85 -284 128 -437 91z"/>
</g>
</svg>
