<?xml version="1.0" standalone="no"?>
<!DOCTYPE svg PUBLIC "-//W3C//DTD SVG 20010904//EN"
 "http://www.w3.org/TR/2001/REC-SVG-20010904/DTD/svg10.dtd">
<svg version="1.0" xmlns="http://www.w3.org/2000/svg"
 width="512.000000pt" height="512.000000pt" viewBox="0 0 512.000000 512.000000"
 preserveAspectRatio="xMidYMid meet">

<g transform="translate(0.000000,512.000000) scale(0.100000,-0.100000)"
fill="#000000" stroke="none">
<path d="M3510 4134 c-234 -43 -399 -128 -551 -285 l-87 -88 -728 -3 -729 -3
-60 -28 c-33 -15 -79 -47 -103 -70 -24 -23 -127 -163 -229 -310 l-185 -268
-28 48 c-16 27 -40 54 -55 61 -18 8 -103 12 -278 12 -276 0 -281 -1 -312 -60
-20 -38 -19 -56 6 -162 28 -121 46 -138 221 -208 l136 -55 -39 -49 c-22 -27
-52 -76 -69 -110 -60 -124 -60 -123 -60 -786 l0 -605 24 -50 c28 -60 56 -87
116 -114 40 -18 66 -21 219 -21 196 0 232 7 291 58 68 57 74 78 80 247 l5 150
1190 0 1190 0 5 -150 c4 -132 8 -154 27 -185 30 -49 60 -75 113 -99 40 -18 66
-21 221 -21 106 0 190 5 210 11 48 17 95 54 127 102 l27 40 5 296 5 296 138
-270 c149 -294 173 -326 253 -343 60 -13 106 -1 195 49 92 52 126 83 150 134
23 51 24 99 0 150 -10 22 -165 266 -345 543 -179 277 -326 506 -326 509 0 2
24 33 53 66 107 123 177 255 219 407 32 122 32 337 -1 460 -44 164 -120 300
-235 419 -181 187 -390 279 -651 286 -71 2 -141 2 -155 -1z m350 -144 c41 -12
115 -42 165 -68 74 -38 107 -63 190 -146 81 -82 109 -118 147 -191 72 -139 92
-223 92 -385 0 -110 -4 -150 -22 -214 -67 -233 -217 -416 -427 -521 -138 -68
-193 -80 -375 -80 -148 1 -159 2 -249 33 -134 47 -222 101 -322 201 -140 140
-216 297 -237 487 -47 425 226 802 653 900 88 20 289 12 385 -16z m-1063 -362
c-62 -141 -84 -218 -97 -344 -9 -83 -1 -229 16 -289 16 -56 41 -52 -283 -47
-435 7 -1459 -29 -1550 -54 -13 -4 -23 -3 -23 0 0 4 99 150 220 326 221 319
278 387 342 407 51 17 1382 17 1375 1z m-2065 -605 l29 -52 -51 -77 -52 -76
-48 6 c-44 6 -285 97 -302 114 -4 4 -14 38 -21 75 l-15 67 215 -2 216 -3 29
-52z m1919 -200 l126 -6 18 -39 c55 -125 219 -306 343 -379 l62 -36 -39 -26
c-84 -56 -121 -135 -121 -261 0 -93 17 -133 72 -166 31 -19 51 -20 332 -20
286 0 302 1 344 21 29 15 54 37 73 67 28 45 29 50 29 178 0 105 3 133 14 137
19 7 29 -9 115 -181 l71 -142 0 -205 0 -205 -1805 0 -1806 0 3 423 c3 416 3
423 26 480 51 125 167 237 295 285 30 11 90 25 133 31 263 34 1360 63 1715 44z
m1867 -917 c182 -283 332 -522 332 -533 0 -32 -27 -60 -102 -103 -76 -44 -120
-52 -145 -27 -14 14 -563 1084 -563 1096 1 7 121 79 135 80 6 0 160 -231 343
-513z m-900 358 l152 -6 0 -104 c0 -155 23 -145 -323 -142 l-282 3 -3 70 c-2
60 1 76 20 105 42 62 127 93 233 84 28 -2 119 -7 203 -10z m-2648 -960 l0
-136 -34 -34 -34 -34 -166 0 c-246 0 -256 9 -256 215 l0 125 245 0 245 0 0
-136z m3120 1 l0 -135 -29 -32 -29 -33 -187 0 -187 0 -29 33 -29 32 0 135 0
135 245 0 245 0 0 -135z"/>
<path d="M3540 3951 c-250 -35 -471 -194 -579 -415 -53 -107 -71 -180 -78
-306 -11 -220 62 -405 222 -565 162 -161 356 -235 577 -222 370 23 666 304
708 674 48 428 -278 812 -713 837 -45 2 -107 1 -137 -3z m250 -133 c25 -6 83
-28 130 -50 69 -33 100 -56 166 -122 128 -130 187 -273 187 -451 -3 -565 -686
-846 -1083 -446 -100 100 -149 195 -184 354 l-6 27 199 0 c175 0 201 2 220 18
12 9 41 64 65 121 52 124 44 142 86 -199 37 -298 39 -307 57 -325 18 -18 67
-20 81 -2 6 6 46 98 90 202 l79 190 86 5 c64 4 90 10 106 24 25 23 27 53 4 78
-14 16 -33 18 -138 18 -95 0 -125 -3 -135 -14 -6 -8 -31 -61 -55 -118 -24 -56
-46 -96 -49 -88 -2 8 -21 146 -41 305 -31 257 -38 292 -56 308 -24 19 -42 21
-68 8 -10 -6 -53 -95 -101 -210 l-84 -201 -173 0 -174 0 6 38 c22 127 77 246
156 335 90 102 245 186 378 207 63 10 183 4 251 -12z"/>
<path d="M724 2396 l-44 -43 0 -159 c0 -184 11 -221 82 -270 l41 -29 311 -3
c297 -2 313 -1 344 18 56 35 72 73 72 176 0 77 -4 98 -26 142 -28 56 -73 101
-134 132 -41 21 -448 80 -551 80 -48 0 -55 -3 -95 -44z m363 -105 c230 -31
260 -41 301 -101 19 -29 22 -45 20 -105 l-3 -70 -282 -3 c-351 -3 -323 -17
-323 166 0 71 3 132 7 135 11 11 59 8 280 -22z"/>
</g>
</svg>
