<?xml version="1.0" standalone="no"?>
<!DOCTYPE svg PUBLIC "-//W3C//DTD SVG 20010904//EN"
 "http://www.w3.org/TR/2001/REC-SVG-20010904/DTD/svg10.dtd">
<svg version="1.0" xmlns="http://www.w3.org/2000/svg"
 width="512.000000pt" height="512.000000pt" viewBox="0 0 512.000000 512.000000"
 preserveAspectRatio="xMidYMid meet">

<g transform="translate(0.000000,512.000000) scale(0.100000,-0.100000)"
fill="#000000" stroke="none">
<path d="M798 4649 c-21 -12 -293 -420 -403 -604 -171 -285 -295 -553 -341
-733 -81 -321 54 -662 340 -854 l41 -28 -3 -152 c-2 -84 1 -193 8 -243 17
-134 13 -132 249 -155 106 -10 194 -20 195 -22 1 -1 13 -34 26 -73 12 -38 39
-104 59 -145 20 -41 37 -78 39 -81 2 -4 -32 -49 -76 -100 -157 -188 -172 -209
-172 -238 0 -50 187 -261 343 -385 90 -72 97 -70 274 77 l148 124 80 -38 c44
-20 114 -49 155 -64 l76 -26 17 -190 c10 -105 23 -199 30 -210 6 -10 25 -24
42 -30 42 -16 393 -23 484 -11 116 17 117 17 137 249 l18 193 65 21 c36 12
107 41 156 64 l90 41 149 -123 c177 -147 183 -149 273 -77 154 123 343 335
343 384 0 31 -6 39 -140 200 -53 63 -99 120 -103 127 -4 6 10 47 32 90 21 43
49 110 61 148 13 39 24 72 26 73 1 2 89 12 195 22 239 23 233 19 250 165 13
113 6 388 -11 448 -6 20 -21 43 -33 51 -13 8 -95 20 -207 31 -102 9 -188 20
-191 23 -3 4 -20 48 -38 97 -19 50 -47 116 -63 148 l-29 58 126 151 c143 173
145 180 88 255 -105 139 -324 345 -381 360 -35 8 -53 -3 -205 -131 -77 -64
-141 -116 -144 -116 -3 0 -34 14 -69 31 -34 17 -103 45 -151 63 l-88 31 -17
180 c-20 214 -22 220 -52 240 -40 26 -272 41 -431 27 -141 -12 -168 -19 -185
-52 -6 -10 -18 -103 -27 -206 -15 -170 -19 -187 -37 -195 -12 -4 -67 -26 -123
-47 l-102 -39 -12 31 c-86 217 -245 507 -454 831 -90 139 -216 319 -233 333
-19 14 -70 15 -94 1z m159 -371 c155 -235 293 -471 377 -643 88 -179 117 -252
147 -365 64 -248 -48 -527 -272 -676 -377 -250 -879 -59 -1000 381 -31 113
-24 244 20 375 61 182 261 558 456 860 67 103 156 230 161 230 3 0 53 -73 111
-162z m1418 -450 c2 -2 11 -86 20 -188 17 -187 27 -223 62 -233 134 -38 207
-65 298 -112 60 -30 119 -55 130 -55 25 0 37 9 197 142 64 54 121 98 126 98
13 0 163 -141 210 -198 l40 -48 -119 -143 c-65 -79 -122 -154 -125 -168 -5
-18 9 -55 53 -141 33 -64 73 -161 89 -216 20 -69 35 -103 51 -113 14 -9 88
-20 207 -31 l185 -16 7 -52 c7 -61 2 -289 -7 -298 -3 -4 -90 -15 -193 -25
-155 -15 -191 -22 -207 -37 -10 -11 -30 -59 -44 -109 -14 -49 -53 -145 -87
-212 -43 -87 -59 -128 -54 -145 3 -13 58 -85 121 -160 63 -76 115 -144 115
-151 0 -15 -198 -220 -228 -236 -14 -8 -43 12 -157 106 -76 63 -150 119 -164
124 -20 8 -42 1 -130 -44 -90 -47 -174 -79 -300 -116 -49 -14 -58 -44 -76
-236 -10 -99 -19 -183 -22 -187 -6 -11 -340 -10 -347 0 -2 4 -12 89 -21 187
-17 192 -27 222 -76 236 -126 37 -210 69 -300 116 -87 44 -110 52 -130 45 -13
-5 -87 -62 -164 -125 -113 -94 -143 -113 -157 -106 -31 17 -228 220 -228 235
0 8 52 76 115 152 63 75 118 147 121 160 5 17 -11 58 -54 145 -34 67 -73 163
-87 212 -14 50 -34 98 -44 109 -16 15 -52 22 -207 37 -103 10 -190 21 -193 25
-3 3 -7 73 -9 156 -3 139 -2 150 14 144 9 -4 58 -14 108 -22 167 -29 324 -5
491 76 239 117 403 338 445 603 12 73 9 212 -6 263 -5 18 4 25 66 53 39 17
110 43 158 56 90 26 122 49 122 89 0 11 7 86 15 166 8 80 15 155 15 167 0 18
7 23 43 26 45 5 307 1 312 -5z"/>
<path d="M2049 2865 c-238 -60 -422 -242 -484 -480 -21 -78 -21 -241 0 -320
30 -115 82 -203 175 -296 70 -71 101 -94 170 -127 110 -52 173 -66 290 -66
116 0 180 14 290 66 70 34 100 56 170 127 94 95 145 182 175 301 25 97 17 282
-17 372 -37 100 -85 174 -158 248 -76 75 -149 121 -252 157 -90 32 -268 41
-359 18z m276 -160 c138 -36 259 -138 322 -272 34 -71 38 -87 41 -180 4 -83 0
-115 -17 -171 -86 -283 -409 -428 -676 -303 -180 84 -286 250 -286 448 0 45 5
101 11 125 44 163 189 309 351 352 72 19 181 20 254 1z"/>
<path d="M3876 4019 c-35 -28 -36 -80 -1 -114 l24 -25 571 0 571 0 24 25 c35
34 34 86 -1 114 -26 21 -35 21 -594 21 -559 0 -568 0 -594 -21z"/>
<path d="M3876 3639 c-35 -28 -36 -80 -1 -114 l24 -25 374 0 c364 0 375 1 401
21 20 16 26 29 26 59 0 30 -6 43 -26 59 -26 20 -37 21 -399 21 -362 0 -373 -1
-399 -21z"/>
<path d="M3875 3255 c-16 -15 -25 -36 -25 -55 0 -19 9 -40 25 -55 24 -25 25
-25 224 -25 195 0 201 1 227 23 20 17 27 33 27 57 0 24 -7 40 -27 57 -26 22
-32 23 -227 23 -199 0 -200 0 -224 -25z"/>
</g>
</svg>
