<?xml version="1.0" standalone="no"?>
<!DOCTYPE svg PUBLIC "-//W3C//DTD SVG 20010904//EN"
 "http://www.w3.org/TR/2001/REC-SVG-20010904/DTD/svg10.dtd">
<svg version="1.0" xmlns="http://www.w3.org/2000/svg"
 width="512.000000pt" height="512.000000pt" viewBox="0 0 512.000000 512.000000"
 preserveAspectRatio="xMidYMid meet">

<g transform="translate(0.000000,512.000000) scale(0.100000,-0.100000)"
fill="#000000" stroke="none">
<path d="M3849 4543 l-148 -146 -84 80 c-115 111 -195 136 -313 97 -45 -15
-127 -94 -964 -931 l-916 -914 -24 26 c-35 37 -118 75 -164 75 -77 0 -117 -19
-187 -87 -119 -114 -131 -225 -40 -341 l39 -49 -150 -149 c-82 -82 -159 -167
-170 -188 -29 -57 -35 -141 -13 -207 16 -47 37 -74 176 -214 l158 -160 -284
-285 c-276 -277 -285 -287 -285 -325 0 -37 8 -47 178 -217 170 -170 180 -178
217 -178 38 0 48 9 325 285 l285 285 145 -146 c182 -183 208 -199 315 -199 59
0 91 5 120 19 22 11 110 88 195 172 l155 153 41 -39 c97 -91 241 -76 342 34
24 26 52 66 63 89 36 81 16 192 -49 260 l-26 28 901 902 c983 983 953 949 953
1063 0 111 -11 127 -269 387 l-235 237 147 148 c199 201 202 172 -31 404 -232
233 -203 230 -403 31z m266 -353 l-105 -105 -92 93 -93 92 105 105 105 105 92
-92 93 -93 -105 -105z m-167 -293 c505 -505 512 -513 512 -552 0 -40 -8 -48
-629 -669 l-629 -629 -3 69 c-5 86 -30 137 -110 222 -52 55 -59 68 -59 104 0
47 22 87 80 143 75 71 108 170 90 266 -14 74 -36 113 -107 190 -58 64 -63 73
-63 115 0 42 5 50 59 107 95 99 128 187 111 293 -12 70 -39 120 -95 174 -55
53 -75 88 -75 130 0 42 13 66 70 125 68 70 94 126 98 208 4 67 5 67 64 130 80
82 106 99 143 92 23 -4 148 -123 543 -518z m-1068 -172 c12 -25 48 -74 80
-109 92 -101 90 -132 -13 -245 -73 -79 -97 -134 -97 -221 0 -89 24 -142 100
-224 102 -110 102 -144 1 -252 -78 -83 -105 -151 -99 -249 6 -87 30 -136 108
-220 90 -97 89 -137 -6 -237 -70 -73 -97 -133 -100 -218 l-1 -65 -98 -93 -98
-94 -554 554 -553 553 647 648 648 647 7 -65 c3 -36 16 -85 28 -110z m-901
-1799 c601 -601 724 -728 724 -750 0 -36 -58 -96 -92 -96 -21 0 -170 144 -753
727 -469 469 -728 735 -728 748 0 29 69 95 99 95 21 0 172 -146 750 -724z
m-482 -353 l-167 -168 -225 225 c-287 288 -280 248 -78 452 l148 148 245 -245
245 -245 -168 -167z m547 -202 l239 -239 -138 -146 c-148 -156 -176 -175 -228
-152 -18 8 -129 111 -247 230 l-215 216 165 165 c91 91 169 165 175 165 6 0
118 -108 249 -239z m-778 -158 c46 -49 84 -90 84 -93 0 -3 -106 -111 -235
-240 l-235 -235 -92 93 -93 92 235 235 c129 129 239 235 243 235 5 0 47 -39
93 -87z"/>
</g>
</svg>
