<?xml version="1.0" standalone="no"?>
<!DOCTYPE svg PUBLIC "-//W3C//DTD SVG 20010904//EN"
 "http://www.w3.org/TR/2001/REC-SVG-20010904/DTD/svg10.dtd">
<svg version="1.0" xmlns="http://www.w3.org/2000/svg"
 width="512.000000pt" height="512.000000pt" viewBox="0 0 512.000000 512.000000"
 preserveAspectRatio="xMidYMid meet">

<g transform="translate(0.000000,512.000000) scale(0.100000,-0.100000)"
fill="#000000" stroke="none">
<path d="M4043 5113 c-43 -6 -67 -38 -83 -113 -8 -39 -19 -64 -29 -67 -9 -3
-42 -17 -73 -30 l-57 -25 -65 36 c-95 53 -102 51 -211 -57 -54 -53 -96 -104
-100 -120 -6 -21 1 -41 33 -95 l40 -67 -18 -35 c-9 -19 -23 -51 -29 -71 -10
-32 -18 -38 -59 -49 -88 -23 -96 -26 -116 -53 -17 -23 -20 -42 -19 -151 0
-158 5 -167 103 -191 71 -17 72 -18 92 -64 10 -25 25 -58 32 -73 13 -24 11
-31 -19 -81 -45 -74 -49 -91 -30 -126 22 -43 152 -171 188 -186 36 -15 52 -10
124 34 l50 31 59 -26 c33 -14 66 -29 74 -33 8 -4 22 -38 31 -76 26 -101 24
-100 195 -100 170 0 172 1 194 105 l13 62 75 34 74 34 58 -35 c76 -46 105 -45
168 5 67 54 152 156 152 183 0 12 -16 49 -36 82 -40 66 -40 62 7 171 16 40 20
42 89 59 49 12 75 24 85 39 33 53 30 276 -5 314 -10 11 -50 27 -89 37 -39 9
-71 22 -71 27 0 6 -12 37 -27 70 l-27 60 40 74 39 73 -19 36 c-11 19 -57 71
-102 115 -98 94 -111 97 -198 45 l-58 -36 -72 28 c-39 15 -74 31 -77 37 -4 5
-12 34 -19 65 -15 72 -29 91 -77 102 -37 8 -167 10 -230 2z m187 -201 c20 -73
39 -98 84 -106 17 -3 65 -22 105 -41 40 -19 84 -35 98 -35 14 0 48 14 75 30
58 36 77 33 114 -15 l26 -35 -30 -48 c-46 -75 -46 -80 -3 -173 21 -46 42 -98
46 -115 9 -44 32 -62 106 -82 l64 -17 3 -57 c3 -62 9 -56 -78 -78 -63 -16 -87
-34 -95 -72 -4 -18 -25 -72 -48 -121 -45 -97 -46 -89 15 -190 l22 -37 -40 -41
-41 -40 -59 35 c-32 20 -67 36 -77 36 -10 0 -43 -13 -75 -29 -31 -16 -83 -37
-116 -47 -67 -21 -79 -36 -97 -117 l-12 -58 -60 3 -60 3 -17 62 c-9 34 -23 69
-29 77 -7 8 -38 22 -69 31 -31 9 -82 30 -114 46 -31 16 -65 29 -74 29 -8 0
-43 -16 -76 -36 l-61 -35 -40 39 -39 39 38 70 38 70 -41 89 c-22 49 -44 103
-47 119 -8 32 -33 65 -49 65 -5 0 -33 7 -62 16 -46 13 -55 19 -60 45 -4 16 -4
42 0 58 6 27 13 31 62 42 71 16 97 40 118 109 10 30 30 79 46 107 16 29 29 60
29 69 0 8 -16 43 -36 76 l-35 61 37 38 c21 22 42 39 47 39 6 0 32 -13 59 -30
60 -37 84 -38 157 0 32 16 79 34 104 41 58 14 81 41 97 109 7 30 15 59 17 63
3 4 30 7 60 5 l56 -3 17 -63z"/>
<path d="M4009 4701 c-212 -68 -359 -265 -359 -480 0 -249 185 -464 432 -502
352 -55 653 279 563 624 -45 172 -189 318 -359 363 -72 19 -209 17 -277 -5z
m303 -153 c72 -34 137 -98 174 -174 26 -53 29 -69 29 -154 0 -88 -3 -101 -33
-162 -97 -197 -340 -265 -525 -146 -211 136 -222 442 -21 597 72 55 126 71
229 68 73 -2 101 -7 147 -29z"/>
<path d="M1462 4379 c-154 -20 -276 -82 -392 -199 -93 -92 -142 -173 -178
-290 -69 -229 -11 -475 156 -660 l52 -58 0 -225 c0 -212 1 -226 21 -251 16
-20 29 -26 60 -26 l39 0 0 -490 0 -490 -235 0 c-215 0 -239 -2 -292 -21 -72
-28 -144 -94 -180 -168 -39 -79 -39 -190 -1 -274 l27 -57 -32 0 c-86 0 -208
-93 -252 -191 -25 -56 -27 -70 -23 -148 3 -71 9 -96 31 -135 15 -27 26 -50 25
-51 -2 -2 -22 -12 -46 -24 -60 -31 -120 -93 -150 -160 -25 -53 -27 -67 -30
-233 l-4 -177 26 -25 25 -26 1446 0 c1432 0 1445 0 1465 20 18 18 20 33 20
195 0 151 -3 181 -21 229 -26 70 -94 146 -157 176 l-49 23 31 60 c27 53 31 70
31 141 0 100 -30 173 -100 240 -46 46 -132 86 -181 86 -21 0 -25 3 -19 18 42
100 47 119 43 192 -6 124 -72 226 -183 281 -48 23 -58 24 -302 27 l-253 3 0
490 0 489 40 0 c27 0 47 7 60 20 19 19 20 33 20 251 l0 231 46 47 c123 122
194 299 194 478 -1 414 -369 737 -778 682z m195 -145 c114 -23 196 -67 279
-149 118 -117 172 -259 161 -428 -9 -142 -65 -258 -179 -369 l-58 -56 0 -211
0 -211 -310 0 -310 0 0 212 0 211 -68 71 c-77 80 -111 134 -140 221 -98 292
73 616 368 699 104 29 157 31 257 10z m83 -2054 l0 -490 -187 2 -188 3 -3 488
-2 487 190 0 190 0 0 -490z m640 -650 c105 -54 134 -199 58 -286 -65 -74 -8
-69 -846 -72 -487 -2 -773 1 -809 8 -70 12 -119 49 -145 108 -40 91 -3 198 84
241 43 21 45 21 831 21 767 0 789 -1 827 -20z m284 -534 c109 -83 94 -256 -27
-315 l-44 -21 -1056 2 -1055 3 -39 31 c-55 45 -76 86 -76 148 0 67 30 123 86
159 l41 27 1066 -2 1067 -3 37 -29z m99 -487 c47 -13 106 -63 123 -106 9 -21
14 -73 14 -148 l0 -115 -1350 0 -1350 0 0 103 c0 56 5 119 11 140 13 47 77
113 121 126 48 13 2382 14 2431 0z"/>
<path d="M3083 3574 c-34 -8 -59 -46 -73 -114 -8 -40 -19 -64 -29 -67 -9 -3
-43 -16 -75 -29 l-59 -25 -59 36 c-84 49 -102 47 -181 -25 -87 -80 -130 -136
-130 -169 0 -14 16 -53 36 -85 l36 -59 -18 -36 c-10 -20 -24 -52 -30 -73 -11
-34 -15 -37 -82 -53 -103 -25 -109 -37 -109 -195 0 -158 6 -170 109 -195 67
-16 71 -19 82 -53 6 -21 20 -53 30 -73 l18 -36 -33 -54 c-18 -30 -35 -62 -39
-72 -12 -32 21 -83 109 -166 99 -96 116 -100 203 -46 l57 34 76 -31 76 -31 13
-60 c7 -33 22 -71 35 -86 22 -26 24 -26 162 -26 103 0 143 4 156 14 9 7 23 39
32 70 21 77 32 101 45 101 6 0 37 12 69 26 l57 25 59 -35 c32 -20 71 -36 85
-36 51 0 229 173 229 222 0 12 -16 50 -36 85 l-36 64 30 72 30 72 73 20 c99
28 104 36 104 194 0 83 -5 134 -13 148 -9 16 -36 30 -89 46 l-77 23 -28 72
-29 71 35 64 c20 35 36 73 36 84 0 49 -178 223 -229 223 -14 0 -53 -16 -85
-36 l-59 -35 -57 25 c-32 14 -63 26 -69 26 -13 0 -24 24 -45 101 -9 31 -23 62
-32 70 -16 13 -233 23 -281 13z m196 -191 c19 -84 31 -98 108 -123 37 -12 87
-32 110 -46 56 -32 81 -30 150 10 l58 35 40 -39 39 -40 -36 -70 c-38 -72 -39
-97 -7 -136 5 -6 23 -49 40 -95 17 -46 35 -89 40 -95 5 -7 41 -20 79 -29 l70
-17 0 -58 0 -58 -70 -17 c-38 -9 -74 -22 -79 -29 -5 -6 -23 -49 -40 -95 -17
-46 -35 -89 -40 -95 -32 -39 -31 -64 6 -136 l37 -71 -40 -39 -39 -40 -58 35
c-32 19 -68 35 -80 35 -12 0 -49 -14 -82 -30 -32 -17 -83 -38 -112 -46 -62
-18 -76 -36 -94 -116 l-12 -58 -58 0 c-46 0 -59 3 -63 18 -3 9 -10 37 -16 62
-15 59 -32 76 -94 96 -28 9 -77 30 -108 45 -32 16 -68 29 -80 29 -13 0 -49
-16 -80 -34 l-57 -35 -40 41 -41 40 35 63 c19 34 35 70 35 79 0 10 -11 36 -24
59 -14 23 -34 71 -46 107 -25 75 -41 96 -78 105 -15 3 -44 11 -64 16 l-38 10
0 59 0 59 56 12 c74 17 100 39 118 102 9 29 29 79 46 110 16 31 30 65 30 74 0
10 -16 45 -35 78 l-34 60 41 42 40 41 57 -34 c31 -19 66 -34 79 -34 12 0 48
13 80 29 31 15 80 36 108 45 62 20 79 37 94 96 6 25 13 53 16 63 4 14 17 17
63 17 l58 0 12 -57z"/>
<path d="M3120 3179 c-125 -21 -269 -118 -340 -228 -92 -144 -102 -334 -28
-491 40 -84 149 -194 231 -233 291 -140 630 15 712 324 17 63 19 185 4 249
-57 250 -322 423 -579 379z m217 -158 c100 -39 174 -115 214 -220 17 -45 20
-72 17 -141 -3 -73 -9 -94 -38 -148 -76 -143 -234 -222 -384 -192 -126 25
-215 94 -269 208 -28 59 -32 77 -32 152 0 74 4 93 31 150 85 178 283 260 461
191z"/>
<path d="M4008 2025 c-26 -15 -30 -23 -55 -124 -10 -37 -10 -38 -97 -75 l-58
-26 -58 35 c-77 47 -106 46 -168 -8 -57 -48 -123 -121 -141 -155 -15 -28 -9
-48 34 -119 l33 -55 -29 -62 c-16 -33 -29 -66 -29 -72 0 -6 -26 -17 -57 -24
-75 -16 -110 -34 -119 -62 -4 -13 -7 -76 -7 -141 0 -149 8 -163 109 -190 l69
-19 31 -73 31 -72 -40 -67 c-31 -52 -38 -72 -32 -93 4 -16 46 -67 100 -120
109 -108 120 -111 209 -58 l58 36 72 -28 c39 -15 73 -28 75 -29 2 -2 12 -34
22 -71 29 -105 35 -108 192 -108 152 0 171 7 187 65 5 22 15 58 20 80 6 22 15
40 21 40 6 0 39 11 74 25 l63 26 59 -36 c87 -52 99 -49 202 50 49 47 95 100
102 117 12 29 10 36 -26 104 l-39 72 27 60 c15 33 27 64 27 70 0 5 31 17 69
27 45 11 77 25 93 42 22 23 23 32 23 152 0 162 -5 172 -105 196 -69 17 -73 19
-89 59 -47 109 -47 105 -7 171 20 33 36 70 36 82 0 27 -85 129 -152 183 -63
50 -89 51 -166 5 l-59 -35 -59 25 c-32 15 -66 30 -74 34 -8 4 -22 38 -31 76
-25 99 -26 100 -182 103 -103 1 -138 -1 -159 -13z m221 -182 c18 -83 32 -99
98 -118 31 -9 83 -30 115 -46 31 -16 65 -29 75 -29 10 0 45 16 77 36 l59 35
41 -40 40 -41 -22 -37 c-58 -96 -58 -97 -14 -192 22 -47 43 -100 47 -117 9
-44 30 -60 108 -80 l68 -17 -3 -56 -3 -56 -64 -17 c-74 -20 -97 -38 -106 -82
-4 -17 -25 -69 -46 -115 -43 -93 -43 -98 4 -174 l30 -49 -20 -26 c-11 -15 -31
-33 -44 -41 -22 -12 -29 -11 -75 18 -63 38 -89 39 -162 2 -31 -15 -80 -36
-109 -45 -63 -21 -72 -31 -93 -109 l-17 -62 -59 0 -58 0 -15 62 c-19 71 -40
99 -85 107 -17 3 -65 22 -105 41 -40 19 -83 35 -97 35 -13 0 -46 -13 -72 -30
-57 -35 -60 -35 -87 -12 -59 52 -59 54 -20 118 19 33 35 66 35 74 0 8 -13 40
-29 70 -15 30 -36 80 -46 110 -21 69 -47 93 -118 109 -49 11 -56 15 -62 42 -4
16 -4 42 0 59 5 25 14 31 48 40 75 20 82 22 99 37 9 8 20 29 24 47 3 17 24 71
47 119 45 98 45 89 -15 190 l-22 37 40 41 41 40 59 -35 c32 -20 69 -36 82 -36
12 0 46 13 75 29 28 16 78 37 110 46 64 18 79 35 97 105 6 25 13 51 15 58 3 8
25 12 63 12 l59 0 12 -57z"/>
<path d="M4070 1640 c-280 -49 -467 -324 -409 -602 29 -138 133 -277 256 -341
94 -48 156 -60 274 -55 92 5 106 8 183 46 179 89 286 258 286 452 0 313 -284
553 -590 500z m221 -159 c78 -30 151 -98 191 -179 30 -61 33 -74 33 -162 0
-85 -3 -101 -29 -154 -37 -76 -101 -140 -174 -174 -50 -24 -70 -27 -157 -27
-89 0 -106 3 -156 27 -139 69 -219 208 -206 360 21 246 264 396 498 309z"/>
</g>
</svg>
