<?xml version="1.0" standalone="no"?>
<!DOCTYPE svg PUBLIC "-//W3C//DTD SVG 20010904//EN"
 "http://www.w3.org/TR/2001/REC-SVG-20010904/DTD/svg10.dtd">
<svg version="1.0" xmlns="http://www.w3.org/2000/svg"
 width="512.000000pt" height="512.000000pt" viewBox="0 0 512.000000 512.000000"
 preserveAspectRatio="xMidYMid meet">

<g transform="translate(0.000000,512.000000) scale(0.100000,-0.100000)"
fill="#000000" stroke="none">
<path d="M2272 4943 c-17 -15 -30 -61 -64 -238 l-43 -219 -35 -9 c-111 -29
-260 -87 -369 -143 l-125 -64 -194 126 c-147 96 -199 125 -216 120 -34 -8
-406 -390 -406 -416 0 -12 57 -105 126 -207 l126 -186 -22 -36 c-67 -112 -190
-411 -190 -464 0 -25 -21 -32 -244 -78 -115 -24 -215 -49 -222 -57 -11 -11
-14 -70 -14 -297 0 -284 0 -285 22 -299 13 -7 114 -31 225 -52 112 -21 207
-40 213 -44 5 -3 23 -51 40 -107 35 -118 93 -257 148 -352 l39 -68 -123 -189
c-79 -121 -124 -199 -124 -216 0 -21 38 -63 196 -217 144 -140 203 -191 221
-191 13 0 99 50 203 120 99 66 183 120 188 120 5 0 55 -24 113 -54 124 -65
226 -106 336 -136 l81 -23 14 -72 15 -73 -33 -53 c-109 -177 -77 -417 75 -570
185 -185 477 -185 662 0 154 155 184 392 72 575 l-36 58 14 66 14 66 90 26
c120 34 208 70 334 136 l105 54 75 -48 c42 -27 129 -83 195 -125 65 -43 126
-77 135 -77 23 -1 411 397 411 422 0 11 -57 103 -126 206 l-125 186 26 45 c56
97 119 241 152 346 19 61 38 116 42 124 4 9 44 22 92 32 46 10 143 30 214 45
72 15 138 34 148 42 15 14 17 41 17 297 0 245 -2 284 -16 296 -8 7 -112 32
-230 55 -119 23 -217 44 -219 46 -3 2 -18 50 -35 107 -34 115 -102 275 -153
361 l-35 57 124 189 c77 117 124 199 124 215 0 20 -41 66 -194 217 -107 106
-200 193 -208 193 -30 3 -51 -8 -220 -122 -97 -65 -181 -119 -186 -119 -5 0
-45 20 -91 44 -115 62 -230 110 -342 143 l-97 28 -42 205 c-45 217 -54 250
-73 262 -7 4 -134 8 -283 8 -244 0 -274 -2 -292 -17z m548 -309 c24 -119 49
-223 55 -230 5 -8 52 -25 103 -39 136 -36 282 -96 402 -165 58 -33 110 -60
116 -60 5 0 93 56 194 125 l184 125 148 -147 c81 -81 148 -152 148 -156 0 -5
-49 -84 -108 -175 -148 -227 -138 -204 -108 -260 107 -192 159 -321 215 -529
14 -51 8 -48 269 -98 l192 -37 0 -214 c0 -213 0 -214 -22 -219 -13 -3 -111
-23 -218 -46 -107 -22 -200 -45 -206 -50 -6 -5 -19 -42 -29 -82 -37 -151 -105
-316 -191 -458 -19 -31 -34 -65 -34 -75 0 -10 55 -101 122 -202 l122 -183
-150 -150 -151 -150 -184 120 c-102 67 -193 121 -203 121 -9 0 -65 -27 -124
-60 -117 -65 -247 -118 -368 -150 -142 -38 -137 -35 -149 -114 -17 -113 -25
-8 -23 298 l3 328 70 23 c385 124 675 451 749 845 20 105 21 304 1 407 -40
213 -137 401 -286 558 -342 359 -871 447 -1310 218 -277 -145 -477 -398 -560
-710 -27 -100 -37 -330 -19 -441 65 -409 351 -741 754 -877 l71 -24 3 -326 c2
-326 -5 -406 -27 -315 -23 93 -24 94 -71 108 -234 69 -327 107 -527 218 l-52
29 -188 -128 -188 -127 -151 151 -152 151 115 175 c63 96 119 185 125 198 9
20 5 33 -25 82 -86 142 -148 295 -206 510 -14 51 -9 49 -263 98 l-198 38 0
213 c0 194 2 213 18 218 9 2 96 21 192 41 250 52 237 46 255 113 51 184 118
346 201 483 19 31 34 65 34 75 0 10 -55 101 -122 202 l-122 183 151 151 150
150 186 -121 c102 -67 193 -121 203 -121 9 0 51 20 93 44 136 80 292 142 467
186 22 5 48 18 56 27 9 11 31 101 52 213 20 107 39 203 42 213 5 15 24 17 217
17 l212 0 45 -216z m5 -898 c178 -53 311 -130 436 -255 286 -286 371 -709 218
-1084 -76 -187 -225 -362 -400 -469 -61 -37 -181 -91 -231 -103 l-28 -7 0 212
c0 192 1 211 16 199 19 -16 58 -93 68 -134 12 -48 23 -55 90 -55 114 0 210 70
241 174 22 73 22 1039 0 1112 -19 65 -63 116 -127 148 l-52 26 -496 0 -496 0
-52 -26 c-64 -32 -108 -83 -127 -148 -22 -73 -22 -1039 0 -1112 31 -104 127
-174 241 -174 67 0 78 7 90 55 10 41 49 118 68 134 15 12 16 -7 16 -199 l0
-212 -27 7 c-51 12 -171 66 -232 103 -175 107 -324 282 -400 469 -153 376 -68
797 218 1084 134 134 281 217 466 263 94 23 111 24 265 21 121 -2 160 -7 235
-29z m246 -369 c54 -36 69 -77 69 -189 l0 -98 -327 0 c-290 0 -328 -2 -345
-17 -25 -22 -23 -59 4 -77 19 -14 69 -16 345 -16 l323 0 0 -350 c0 -376 -2
-391 -52 -437 -13 -13 -37 -25 -53 -28 -28 -6 -31 -3 -57 53 -161 349 -676
348 -836 -1 -26 -55 -29 -58 -57 -52 -16 3 -40 15 -53 28 -50 46 -52 61 -52
437 l0 350 117 0 c126 0 153 10 153 56 0 46 -22 54 -151 54 l-119 0 0 98 c0
112 15 153 69 189 l34 23 477 0 477 0 34 -23z m-388 -1025 l27 -12 0 -653 c0
-744 -6 -691 89 -774 33 -29 62 -67 83 -111 30 -61 33 -74 33 -162 0 -85 -3
-101 -29 -155 -36 -73 -99 -135 -174 -172 -50 -25 -68 -28 -152 -28 -84 0
-102 3 -152 28 -76 37 -143 104 -176 175 -23 49 -27 70 -27 152 0 88 3 101 33
162 21 43 51 83 81 110 93 83 85 15 91 767 l5 664 35 13 c42 16 192 13 233 -4z"/>
<path d="M2497 837 c-158 -50 -204 -264 -78 -370 70 -58 189 -63 264 -11 148
104 106 339 -69 383 -52 13 -68 13 -117 -2z m108 -113 c20 -9 40 -30 50 -50
48 -102 -83 -197 -165 -119 -16 15 -32 40 -35 56 -9 40 21 98 59 115 40 17 51
17 91 -2z"/>
</g>
</svg>
