<?xml version="1.0" standalone="no"?>
<!DOCTYPE svg PUBLIC "-//W3C//DTD SVG 20010904//EN"
 "http://www.w3.org/TR/2001/REC-SVG-20010904/DTD/svg10.dtd">
<svg version="1.0" xmlns="http://www.w3.org/2000/svg"
 width="512.000000pt" height="512.000000pt" viewBox="0 0 512.000000 512.000000"
 preserveAspectRatio="xMidYMid meet">

<g transform="translate(0.000000,512.000000) scale(0.100000,-0.100000)"
fill="#000000" stroke="none">
<path d="M1906 4789 c-62 -15 -153 -68 -197 -116 -22 -24 -55 -74 -72 -111
l-32 -67 -3 -327 -3 -328 80 0 81 0 0 120 0 120 1480 0 1480 0 0 -80 0 -80
-1320 0 -1320 0 0 -80 0 -80 1320 0 1320 0 0 -96 c0 -118 -12 -163 -61 -218
-36 -41 -104 -84 -115 -73 -3 3 15 46 40 96 25 50 46 92 46 94 0 6 -140 71
-144 66 -2 -2 -34 -64 -70 -136 l-66 -133 -70 0 -70 0 50 100 c27 55 50 101
50 103 0 6 -140 71 -144 66 -2 -2 -34 -64 -70 -136 l-66 -133 -70 0 -70 0 50
100 c27 55 50 101 50 103 0 6 -140 71 -144 66 -2 -2 -34 -64 -70 -136 l-66
-133 -70 0 -70 0 50 100 c27 55 50 101 50 103 0 6 -140 71 -144 66 -2 -2 -34
-64 -70 -136 l-66 -133 -95 0 -95 0 0 -80 0 -80 95 0 95 0 66 -132 c36 -73 68
-135 70 -137 4 -5 144 60 144 66 0 2 -23 48 -50 103 l-50 100 70 0 70 0 66
-132 c36 -73 68 -135 70 -137 4 -5 144 60 144 66 0 2 -23 48 -50 103 l-50 100
70 0 70 0 66 -132 c36 -73 68 -135 70 -137 4 -5 144 60 144 66 0 2 -21 44 -46
94 -25 50 -43 93 -40 96 11 11 79 -32 115 -73 49 -55 61 -100 61 -218 l0 -96
-440 0 -440 0 0 -80 0 -80 440 0 440 0 0 -80 0 -80 -360 0 -360 0 0 -80 0 -80
360 0 360 0 0 -96 c0 -118 -12 -163 -61 -218 -36 -41 -104 -84 -115 -73 -3 3
15 46 40 96 25 50 46 92 46 94 0 6 -140 71 -144 66 -2 -2 -34 -64 -70 -136
l-66 -133 -70 0 -70 0 50 100 c27 55 50 101 50 103 0 6 -140 71 -144 66 -2 -2
-34 -64 -70 -136 -41 -82 -72 -133 -81 -133 -12 0 -15 -16 -15 -80 l0 -80 55
0 55 0 66 -132 c36 -73 68 -135 70 -137 4 -5 144 60 144 66 0 2 -23 48 -50
103 l-50 100 70 0 70 0 66 -132 c36 -73 68 -135 70 -137 4 -5 144 60 144 66 0
2 -23 48 -50 103 l-50 100 70 0 70 0 66 -132 c36 -73 68 -135 70 -137 4 -5
144 60 144 66 0 2 -21 44 -46 94 -25 50 -43 93 -40 96 11 11 79 -32 115 -73
49 -55 61 -100 61 -218 l0 -96 -640 0 -640 0 0 -80 0 -80 640 0 640 0 0 -80 0
-80 -720 0 -720 0 0 -80 0 -80 720 0 720 0 0 -96 c0 -118 -12 -163 -61 -218
-36 -41 -104 -84 -115 -73 -3 3 15 46 40 96 25 50 46 92 46 94 0 6 -140 71
-144 66 -2 -2 -34 -64 -70 -137 l-66 -132 -70 0 -70 0 50 100 c27 55 50 101
50 103 0 6 -140 71 -144 66 -2 -2 -34 -64 -70 -136 l-66 -133 -70 0 -70 0 50
100 c27 55 50 101 50 103 0 6 -140 71 -144 66 -2 -2 -34 -64 -70 -137 l-66
-132 -70 0 -70 0 50 100 c27 55 50 101 50 103 0 6 -140 71 -144 66 -2 -2 -34
-64 -70 -137 l-66 -132 -70 0 -70 0 50 100 c27 55 50 101 50 103 0 6 -140 71
-144 66 -2 -2 -34 -64 -70 -137 l-66 -132 -175 0 -175 0 0 -80 0 -80 928 2
927 3 67 32 c93 44 151 100 196 191 l37 76 0 496 0 496 -37 76 c-69 139 -188
216 -346 226 l-87 4 35 71 35 71 0 496 0 496 -35 71 -35 71 52 7 c73 9 182 65
233 121 23 25 56 75 73 112 l32 67 0 495 0 495 -32 67 c-44 93 -100 151 -191
196 l-76 37 -1315 2 c-773 1 -1332 -3 -1355 -8z m270 -281 c36 -73 68 -135 70
-137 4 -5 144 60 144 66 0 2 -23 48 -50 103 l-50 100 70 0 70 0 66 -132 c36
-73 68 -135 70 -137 4 -5 144 60 144 66 0 2 -23 48 -50 103 l-50 100 70 0 70
0 66 -132 c36 -73 68 -135 70 -137 4 -5 144 60 144 66 0 2 -23 48 -50 103
l-50 100 70 0 70 0 66 -132 c36 -73 68 -135 70 -137 4 -5 144 60 144 66 0 2
-23 48 -50 103 l-50 100 70 0 70 0 66 -132 c36 -73 68 -135 70 -137 4 -5 144
60 144 66 0 2 -23 48 -50 103 l-50 100 70 0 70 0 66 -132 c36 -73 68 -135 70
-137 4 -5 144 60 144 66 0 2 -23 48 -50 103 l-50 100 70 0 70 0 66 -132 c36
-73 68 -135 70 -137 4 -5 144 60 144 66 0 2 -23 48 -50 103 l-50 100 70 0 70
0 66 -132 c36 -73 68 -135 70 -137 4 -5 144 60 144 66 0 2 -21 44 -46 94 -25
50 -43 93 -40 96 11 11 79 -32 115 -73 49 -55 61 -100 61 -218 l0 -96 -1480 0
-1480 0 0 96 c0 107 11 158 45 200 l23 28 47 -94 c26 -52 49 -97 51 -99 4 -5
144 60 144 66 0 2 -23 48 -50 103 l-50 100 70 0 70 0 66 -132z"/>
<path d="M1690 3673 c-596 -62 -1092 -402 -1355 -931 -375 -752 -127 -1673
575 -2139 437 -290 978 -360 1473 -192 458 155 828 507 1015 965 83 203 116
382 116 624 0 242 -33 421 -116 624 -240 585 -756 976 -1383 1046 -85 9 -249
11 -325 3z m70 -233 l0 -80 80 0 80 0 0 81 0 80 48 -6 c130 -17 182 -28 182
-38 0 -7 -7 -37 -15 -67 -8 -30 -15 -60 -15 -66 0 -6 34 -20 75 -31 l75 -20
10 37 c5 20 13 51 16 69 4 18 13 35 19 38 12 4 135 -40 190 -70 l25 -13 -39
-66 c-44 -75 -46 -68 40 -116 63 -36 59 -38 105 45 16 29 32 53 35 53 9 0 167
-119 175 -131 3 -6 -18 -35 -47 -65 l-54 -54 58 -57 57 -58 56 55 55 55 35
-40 c43 -50 108 -145 103 -149 -2 -1 -32 -19 -66 -40 l-63 -37 17 -32 c9 -18
26 -49 39 -69 l24 -37 67 39 67 40 13 -23 c26 -50 74 -181 70 -191 -3 -6 -36
-19 -75 -29 l-70 -18 20 -72 c11 -40 22 -74 24 -76 2 -2 32 4 68 13 36 9 69
16 75 16 8 0 20 -59 36 -182 l6 -48 -80 0 -81 0 0 -80 0 -80 81 0 80 0 -6 -47
c-16 -124 -28 -183 -36 -183 -6 0 -39 7 -75 16 -36 9 -66 15 -68 13 -2 -2 -13
-36 -24 -76 l-20 -72 70 -18 c39 -10 72 -23 75 -29 4 -10 -44 -141 -70 -191
l-13 -23 -67 40 -67 39 -24 -37 c-13 -20 -30 -51 -39 -69 l-17 -32 63 -37 c34
-21 64 -39 66 -40 5 -4 -60 -98 -104 -149 l-34 -40 -56 55 -55 55 -57 -58 -58
-57 55 -55 55 -56 -40 -34 c-51 -44 -145 -109 -149 -104 -1 2 -20 32 -40 67
l-38 62 -56 -31 c-87 -49 -85 -42 -41 -117 l39 -66 -23 -13 c-53 -27 -181 -74
-192 -69 -7 2 -15 19 -19 37 -3 18 -11 49 -16 69 l-10 37 -75 -20 c-41 -11
-75 -25 -75 -31 0 -6 7 -36 15 -66 8 -30 15 -60 15 -67 0 -10 -52 -21 -182
-38 l-48 -6 0 80 0 81 -80 0 -80 0 0 -81 0 -80 -47 6 c-124 16 -183 28 -183
36 0 6 7 39 16 75 9 36 15 66 13 68 -2 2 -37 13 -76 24 l-73 20 -10 -37 c-5
-20 -13 -52 -16 -70 -4 -18 -12 -35 -19 -37 -11 -5 -139 42 -192 69 l-23 13
40 67 39 67 -37 24 c-20 13 -51 30 -69 39 l-32 17 -37 -63 c-21 -34 -39 -64
-40 -66 -4 -5 -99 60 -149 103 l-40 35 55 55 55 56 -58 57 -57 58 -54 -54
c-30 -29 -59 -50 -65 -47 -12 8 -131 166 -131 175 0 3 24 19 53 35 88 49 87
43 21 148 l-24 37 -67 -39 -67 -40 -13 23 c-17 33 -73 176 -73 186 0 10 30 21
107 41 l41 10 -20 73 c-11 39 -22 74 -24 76 -2 2 -32 -4 -68 -13 -36 -9 -69
-16 -75 -16 -8 0 -20 59 -36 183 l-6 47 80 0 81 0 0 80 0 80 -81 0 -80 0 6 48
c16 123 28 182 36 182 6 0 39 -7 75 -16 36 -9 66 -15 68 -13 2 2 13 37 24 76
l20 73 -41 10 c-77 20 -107 31 -107 41 0 10 56 153 73 186 l13 23 67 -40 67
-39 24 37 c66 105 67 99 -21 148 -29 16 -53 32 -53 35 0 9 119 167 131 175 6
3 35 -18 65 -47 l54 -54 57 58 58 57 -55 56 -55 55 40 35 c50 43 145 108 149
103 1 -2 19 -32 40 -66 l37 -63 32 17 c18 9 49 26 69 39 l37 24 -39 67 -40 67
23 13 c53 27 181 74 192 69 7 -2 15 -19 19 -37 3 -18 11 -50 16 -70 l10 -37
73 20 c39 11 74 22 76 24 2 2 -4 32 -13 68 -9 36 -16 69 -16 75 0 8 68 22 165
34 70 9 65 14 65 -73z"/>
<path d="M1840 3121 l0 -81 38 0 c118 0 301 -49 433 -115 178 -89 354 -258
435 -417 13 -27 29 -48 34 -48 5 0 39 14 75 32 l65 32 -36 66 c-49 89 -129
192 -211 271 -205 198 -459 312 -745 335 l-88 7 0 -82z"/>
<path d="M1238 3036 c-338 -192 -564 -554 -594 -950 l-7 -86 82 0 81 0 0 38
c0 20 7 78 15 127 50 309 240 583 509 735 31 18 56 37 56 43 -1 7 -15 40 -33
75 l-32 62 -77 -44z"/>
<path d="M1685 2866 c-314 -60 -577 -286 -675 -579 -187 -555 195 -1126 779
-1164 415 -27 792 249 904 662 29 107 30 316 3 419 -87 328 -316 559 -641 648
-92 25 -276 32 -370 14z m239 -155 c3 -5 1 -35 -6 -67 -30 -152 -4 -428 44
-468 49 -40 264 1 432 83 l98 48 15 -34 c7 -19 20 -57 27 -86 l13 -52 -79 -13
c-148 -23 -364 -109 -410 -164 -25 -29 -22 -59 12 -134 42 -94 111 -193 191
-276 57 -58 67 -74 57 -86 -15 -17 -128 -95 -133 -90 -1 1 -17 32 -35 68 -46
92 -102 171 -176 250 -69 73 -122 105 -155 95 -34 -11 -154 -131 -207 -208
-27 -39 -64 -101 -82 -137 -18 -36 -34 -67 -36 -69 -4 -4 -131 85 -138 98 -3
5 25 41 63 80 80 82 149 181 191 275 50 109 41 131 -80 195 -89 46 -214 87
-321 104 l-76 12 13 52 c7 29 20 68 28 87 l14 35 66 -35 c173 -92 418 -142
465 -95 53 53 74 295 40 468 -6 29 -8 57 -4 63 8 12 162 13 169 1z m-330 -49
c13 -21 27 -194 20 -259 -7 -84 -7 -84 -109 -58 -68 18 -225 89 -225 103 0 13
108 113 163 151 44 30 123 70 139 71 4 0 9 -4 12 -8z m571 -20 c76 -38 235
-169 235 -194 0 -24 -240 -118 -300 -118 -27 0 -28 2 -34 73 -7 65 7 238 20
259 6 10 34 3 79 -20z m-893 -696 c52 -13 116 -35 142 -48 l46 -23 -37 -64
c-21 -35 -69 -97 -107 -138 -80 -86 -75 -86 -127 22 -31 66 -53 141 -64 223
l-7 52 30 0 c16 0 72 -11 124 -24z m1283 -28 c-11 -82 -33 -157 -64 -223 -52
-108 -47 -108 -127 -22 -38 41 -86 103 -107 138 l-37 64 47 23 c53 28 212 71
261 72 l34 0 -7 -52z m-656 -385 c45 -50 131 -195 131 -221 0 -12 -122 -32
-192 -32 -52 0 -179 17 -187 25 -21 21 154 285 189 285 5 0 31 -26 59 -57z"/>
<path d="M1785 2055 c-50 -49 -15 -135 55 -135 19 0 40 9 55 25 16 15 25 36
25 55 0 19 -9 40 -25 55 -15 16 -36 25 -55 25 -19 0 -40 -9 -55 -25z"/>
<path d="M2880 1963 c0 -63 -28 -214 -53 -288 -85 -247 -263 -465 -478 -581
-27 -15 -49 -31 -49 -35 0 -5 14 -38 32 -74 l32 -65 66 36 c334 183 575 560
605 952 l8 92 -82 0 -81 0 0 -37z"/>
<path d="M822 1507 l-62 -32 44 -77 c189 -333 556 -563 944 -593 l92 -8 0 82
0 81 -36 0 c-60 0 -175 20 -264 47 -252 75 -499 273 -609 491 -12 23 -27 42
-34 42 -6 -1 -40 -15 -75 -33z"/>
</g>
</svg>
